<svg version="1.2" xmlns="http://www.w3.org/2000/svg" viewBox="0 0 771 462" width="771" height="462">
	<title>landing-page-img1-svg</title>
	<defs>
		<clipPath clipPathUnits="userSpaceOnUse" id="cp1">
			<path d="m335.15 262.89h18.45v18.45h-18.45z"/>
		</clipPath>
		<clipPath clipPathUnits="userSpaceOnUse" id="cp2">
			<path d="m445.08 9.22h122.99v123h-122.99z"/>
		</clipPath>
		<clipPath clipPathUnits="userSpaceOnUse" id="cp3">
			<path d="m375 604h48l0.23 48h-48z"/>
		</clipPath>
	</defs>
	<style>
		.s0 { fill: #122f89 } 
		.s1 { fill: #ffffff } 
		.s2 { fill: none;stroke: #ff0000;stroke-width: 3.8 } 
		.s3 { fill: none;stroke: #122f89;stroke-width: 3.1 } 
		.s4 { fill: none;stroke: #122f89;stroke-width: 4.6 } 
		.s5 { fill: #ffffff;stroke: #0090b9;stroke-width: 4 } 
		.s6 { fill: #ff413c } 
		.s7 { fill: none;stroke: #0090b9;stroke-width: 1.5 } 
		.s8 { fill: none;stroke: #122f89;stroke-width: 3 } 
		.s9 { fill: #0090b9 } 
		.s10 { fill: none;stroke: #122f89;stroke-width: 4 } 
	</style>
	<path id="Layer" class="s0" d="m14.8 369.8c0-2.7 2.1-4.8 4.7-4.8 2.6 0 4.7 2.1 4.7 4.8 0 2.6-2.1 4.7-4.7 4.7-2.6 0-4.7-2.1-4.7-4.7zm33.4 0c0-2.7 2.1-4.8 4.7-4.8 2.6 0 4.7 2.1 4.7 4.8 0 2.6-2.1 4.7-4.7 4.7-2.6 0-4.7-2.1-4.7-4.7zm33.4 0c0-2.7 2.1-4.8 4.7-4.8 2.6 0 4.7 2.1 4.7 4.8 0 2.6-2.1 4.7-4.7 4.7-2.6 0-4.7-2.1-4.7-4.7zm33.4 0c0-2.7 2.1-4.8 4.7-4.8 2.6 0 4.7 2.1 4.7 4.8 0 2.6-2.1 4.7-4.7 4.7-2.6 0-4.7-2.1-4.7-4.7zm33.4 0c0-2.7 2.1-4.8 4.7-4.8 2.6 0 4.7 2.1 4.7 4.8 0 2.6-2.1 4.7-4.7 4.7-2.6 0-4.7-2.1-4.7-4.7zm33.4 0c0-2.7 2.1-4.8 4.7-4.8 2.6 0 4.7 2.1 4.7 4.8 0 2.6-2.1 4.7-4.7 4.7-2.6 0-4.7-2.1-4.7-4.7zm33.4 0c0-2.7 2.1-4.8 4.7-4.8 2.7 0 4.7 2.1 4.7 4.8 0 2.6-2 4.7-4.7 4.7-2.6 0-4.7-2.1-4.7-4.7zm33.4 0c0-2.7 2.1-4.8 4.7-4.8 2.7 0 4.7 2.1 4.7 4.8 0 2.6-2 4.7-4.7 4.7-2.6 0-4.7-2.1-4.7-4.7zm33.4 0c0-2.7 2.1-4.8 4.7-4.8 2.7 0 4.8 2.1 4.8 4.8 0 2.6-2.1 4.7-4.8 4.7-2.6 0-4.7-2.1-4.7-4.7zm33.4 0c0-2.7 2.1-4.8 4.7-4.8 2.7 0 4.8 2.1 4.8 4.8 0 2.6-2.1 4.7-4.8 4.7-2.6 0-4.7-2.1-4.7-4.7zm33.4 0c0-2.7 2.1-4.8 4.7-4.8 2.7 0 4.8 2.1 4.8 4.8 0 2.6-2.1 4.7-4.8 4.7-2.6 0-4.7-2.1-4.7-4.7zm33.4 0c0-2.7 2.1-4.8 4.8-4.8 2.6 0 4.7 2.1 4.7 4.8 0 2.6-2.1 4.7-4.7 4.7-2.7 0-4.8-2.1-4.8-4.7zm-367.4 51c0-2.7 2.1-4.8 4.7-4.8 2.6 0 4.7 2.1 4.7 4.8 0 2.6-2.1 4.7-4.7 4.7-2.6 0-4.7-2.1-4.7-4.7zm33.4 0c0-2.7 2.1-4.8 4.7-4.8 2.6 0 4.7 2.1 4.7 4.8 0 2.6-2.1 4.7-4.7 4.7-2.6 0-4.7-2.1-4.7-4.7zm33.4 0c0-2.7 2.1-4.8 4.7-4.8 2.6 0 4.7 2.1 4.7 4.8 0 2.6-2.1 4.7-4.7 4.7-2.6 0-4.7-2.1-4.7-4.7zm33.4 0c0-2.7 2.1-4.8 4.7-4.8 2.6 0 4.7 2.1 4.7 4.8 0 2.6-2.1 4.7-4.7 4.7-2.6 0-4.7-2.1-4.7-4.7zm33.4 0c0-2.7 2.1-4.8 4.7-4.8 2.6 0 4.7 2.1 4.7 4.8 0 2.6-2.1 4.7-4.7 4.7-2.6 0-4.7-2.1-4.7-4.7zm33.4 0c0-2.7 2.1-4.8 4.7-4.8 2.6 0 4.7 2.1 4.7 4.8 0 2.6-2.1 4.7-4.7 4.7-2.6 0-4.7-2.1-4.7-4.7zm33.4 0c0-2.7 2.1-4.8 4.7-4.8 2.7 0 4.7 2.1 4.7 4.8 0 2.6-2 4.7-4.7 4.7-2.6 0-4.7-2.1-4.7-4.7zm33.4 0c0-2.7 2.1-4.8 4.7-4.8 2.7 0 4.7 2.1 4.7 4.8 0 2.6-2 4.7-4.7 4.7-2.6 0-4.7-2.1-4.7-4.7zm33.4 0c0-2.7 2.1-4.8 4.7-4.8 2.7 0 4.8 2.1 4.8 4.8 0 2.6-2.1 4.7-4.8 4.7-2.6 0-4.7-2.1-4.7-4.7zm33.4 0c0-2.7 2.1-4.8 4.7-4.8 2.7 0 4.8 2.1 4.8 4.8 0 2.6-2.1 4.7-4.8 4.7-2.6 0-4.7-2.1-4.7-4.7zm33.4 0c0-2.7 2.1-4.8 4.7-4.8 2.7 0 4.8 2.1 4.8 4.8 0 2.6-2.1 4.7-4.8 4.7-2.6 0-4.7-2.1-4.7-4.7zm33.4 0c0-2.7 2.1-4.8 4.8-4.8 2.6 0 4.7 2.1 4.7 4.8 0 2.6-2.1 4.7-4.7 4.7-2.7 0-4.8-2.1-4.8-4.7zm-233.8 51c0-2.7 2.1-4.8 4.7-4.8 2.6 0 4.7 2.1 4.7 4.8 0 2.6-2.1 4.7-4.7 4.7-2.6 0-4.7-2.1-4.7-4.7zm33.4 0c0-2.7 2.1-4.8 4.7-4.8 2.6 0 4.7 2.1 4.7 4.8 0 2.6-2.1 4.7-4.7 4.7-2.6 0-4.7-2.1-4.7-4.7zm33.4 0c0-2.7 2.1-4.8 4.7-4.8 2.7 0 4.7 2.1 4.7 4.8 0 2.6-2 4.7-4.7 4.7-2.6 0-4.7-2.1-4.7-4.7zm33.4 0c0-2.7 2.1-4.8 4.7-4.8 2.7 0 4.7 2.1 4.7 4.8 0 2.6-2 4.7-4.7 4.7-2.6 0-4.7-2.1-4.7-4.7zm33.4 0c0-2.7 2.1-4.8 4.7-4.8 2.7 0 4.8 2.1 4.8 4.8 0 2.6-2.1 4.7-4.8 4.7-2.6 0-4.7-2.1-4.7-4.7zm33.4 0c0-2.7 2.1-4.8 4.7-4.8 2.7 0 4.8 2.1 4.8 4.8 0 2.6-2.1 4.7-4.8 4.7-2.6 0-4.7-2.1-4.7-4.7zm33.4 0c0-2.7 2.1-4.8 4.7-4.8 2.7 0 4.8 2.1 4.8 4.8 0 2.6-2.1 4.7-4.8 4.7-2.6 0-4.7-2.1-4.7-4.7zm33.4 0c0-2.7 2.1-4.8 4.8-4.8 2.6 0 4.7 2.1 4.7 4.8 0 2.6-2.1 4.7-4.7 4.7-2.7 0-4.8-2.1-4.8-4.7z"/>
	<path id="Layer" class="s0" d="m379.3 191.4c0-2.6 2.1-4.7 4.7-4.7 2.7 0 4.8 2.1 4.8 4.7 0 2.7-2.1 4.7-4.8 4.7-2.6 0-4.7-2-4.7-4.7zm33.4 0c0-2.6 2.1-4.7 4.8-4.7 2.6 0 4.7 2.1 4.7 4.7 0 2.7-2.1 4.7-4.7 4.7-2.7 0-4.8-2-4.8-4.7zm33.4 0c0-2.6 2.1-4.7 4.8-4.7 2.6 0 4.7 2.1 4.7 4.7 0 2.7-2.1 4.7-4.7 4.7-2.7 0-4.8-2-4.8-4.7zm33.4 0c0-2.6 2.1-4.7 4.8-4.7 2.6 0 4.7 2.1 4.7 4.7 0 2.7-2.1 4.7-4.7 4.7-2.7 0-4.8-2-4.8-4.7zm33.5 0c0-2.6 2-4.7 4.7-4.7 2.6 0 4.7 2.1 4.7 4.7 0 2.7-2.1 4.7-4.7 4.7-2.7 0-4.7-2-4.7-4.7zm33.4 0c0-2.6 2-4.7 4.7-4.7 2.6 0 4.7 2.1 4.7 4.7 0 2.7-2.1 4.7-4.7 4.7-2.7 0-4.7-2-4.7-4.7zm33.4 0c0-2.6 2.1-4.7 4.7-4.7 2.6 0 4.7 2.1 4.7 4.7 0 2.7-2.1 4.7-4.7 4.7-2.6 0-4.7-2-4.7-4.7zm33.4 0c0-2.6 2.1-4.7 4.7-4.7 2.6 0 4.7 2.1 4.7 4.7 0 2.7-2.1 4.7-4.7 4.7-2.6 0-4.7-2-4.7-4.7zm33.4 0c0-2.6 2.1-4.7 4.7-4.7 2.6 0 4.7 2.1 4.7 4.7 0 2.7-2.1 4.7-4.7 4.7-2.6 0-4.7-2-4.7-4.7zm33.4 0c0-2.6 2.1-4.7 4.7-4.7 2.6 0 4.7 2.1 4.7 4.7 0 2.7-2.1 4.7-4.7 4.7-2.6 0-4.7-2-4.7-4.7zm33.4 0c0-2.6 2.1-4.7 4.7-4.7 2.6 0 4.7 2.1 4.7 4.7 0 2.7-2.1 4.7-4.7 4.7-2.6 0-4.7-2-4.7-4.7zm33.4 0c0-2.6 2.1-4.7 4.7-4.7 2.6 0 4.7 2.1 4.7 4.7 0 2.7-2.1 4.7-4.7 4.7-2.6 0-4.7-2-4.7-4.7zm-367.5 51c0-2.6 2.1-4.7 4.7-4.7 2.7 0 4.8 2.1 4.8 4.7 0 2.7-2.1 4.7-4.8 4.7-2.6 0-4.7-2-4.7-4.7zm33.4 0c0-2.6 2.1-4.7 4.8-4.7 2.6 0 4.7 2.1 4.7 4.7 0 2.7-2.1 4.7-4.7 4.7-2.7 0-4.8-2-4.8-4.7zm33.4 0c0-2.6 2.1-4.7 4.8-4.7 2.6 0 4.7 2.1 4.7 4.7 0 2.7-2.1 4.7-4.7 4.7-2.7 0-4.8-2-4.8-4.7zm33.4 0c0-2.6 2.1-4.7 4.8-4.7 2.6 0 4.7 2.1 4.7 4.7 0 2.7-2.1 4.7-4.7 4.7-2.7 0-4.8-2-4.8-4.7zm33.5 0c0-2.6 2-4.7 4.7-4.7 2.6 0 4.7 2.1 4.7 4.7 0 2.7-2.1 4.7-4.7 4.7-2.7 0-4.7-2-4.7-4.7zm33.4 0c0-2.6 2-4.7 4.7-4.7 2.6 0 4.7 2.1 4.7 4.7 0 2.7-2.1 4.7-4.7 4.7-2.7 0-4.7-2-4.7-4.7zm33.4 0c0-2.6 2.1-4.7 4.7-4.7 2.6 0 4.7 2.1 4.7 4.7 0 2.7-2.1 4.7-4.7 4.7-2.6 0-4.7-2-4.7-4.7zm33.4 0c0-2.6 2.1-4.7 4.7-4.7 2.6 0 4.7 2.1 4.7 4.7 0 2.7-2.1 4.7-4.7 4.7-2.6 0-4.7-2-4.7-4.7zm33.4 0c0-2.6 2.1-4.7 4.7-4.7 2.6 0 4.7 2.1 4.7 4.7 0 2.7-2.1 4.7-4.7 4.7-2.6 0-4.7-2-4.7-4.7zm33.4 0c0-2.6 2.1-4.7 4.7-4.7 2.6 0 4.7 2.1 4.7 4.7 0 2.7-2.1 4.7-4.7 4.7-2.6 0-4.7-2-4.7-4.7zm33.4 0c0-2.6 2.1-4.7 4.7-4.7 2.6 0 4.7 2.1 4.7 4.7 0 2.7-2.1 4.7-4.7 4.7-2.6 0-4.7-2-4.7-4.7zm33.4 0c0-2.6 2.1-4.7 4.7-4.7 2.6 0 4.7 2.1 4.7 4.7 0 2.7-2.1 4.7-4.7 4.7-2.6 0-4.7-2-4.7-4.7zm-367.5 51c0-2.6 2.1-4.7 4.7-4.7 2.7 0 4.8 2.1 4.8 4.7 0 2.7-2.1 4.7-4.8 4.7-2.6 0-4.7-2-4.7-4.7zm33.4 0c0-2.6 2.1-4.7 4.8-4.7 2.6 0 4.7 2.1 4.7 4.7 0 2.7-2.1 4.7-4.7 4.7-2.7 0-4.8-2-4.8-4.7zm33.4 0c0-2.6 2.1-4.7 4.8-4.7 2.6 0 4.7 2.1 4.7 4.7 0 2.7-2.1 4.7-4.7 4.7-2.7 0-4.8-2-4.8-4.7zm33.4 0c0-2.6 2.1-4.7 4.8-4.7 2.6 0 4.7 2.1 4.7 4.7 0 2.7-2.1 4.7-4.7 4.7-2.7 0-4.8-2-4.8-4.7zm33.5 0c0-2.6 2-4.7 4.7-4.7 2.6 0 4.7 2.1 4.7 4.7 0 2.7-2.1 4.7-4.7 4.7-2.7 0-4.7-2-4.7-4.7zm33.4 0c0-2.6 2-4.7 4.7-4.7 2.6 0 4.7 2.1 4.7 4.7 0 2.7-2.1 4.7-4.7 4.7-2.7 0-4.7-2-4.7-4.7zm33.4 0c0-2.6 2.1-4.7 4.7-4.7 2.6 0 4.7 2.1 4.7 4.7 0 2.7-2.1 4.7-4.7 4.7-2.6 0-4.7-2-4.7-4.7zm33.4 0c0-2.6 2.1-4.7 4.7-4.7 2.6 0 4.7 2.1 4.7 4.7 0 2.7-2.1 4.7-4.7 4.7-2.6 0-4.7-2-4.7-4.7z"/>
	<path id="Layer" class="s1" d="m222.2 79.2c0-15.7 12.7-28.5 28.4-28.5h236.8c15.7 0 28.4 12.8 28.4 28.5v538.8c0 15.7-12.7 28.5-28.4 28.5h-236.8c-15.7 0-28.4-12.8-28.4-28.5z"/>
	<path id="Layer" class="s2" d="m492 259.8l-24.7 85.7c-2.3 7.9-11.5 11.3-18.4 6.9l-27-17.2c-5.2-3.3-12.1-2.3-16 2.5l-34.4 41.2c-6.8 8-19.8 4.5-21.6-5.9l-32.8-193.4c-2-12.1-18.6-14.1-23.4-2.8l-48.5 113.4"/>
	<path id="Layer" class="s3" d="m318.2 93.8c0-9.8 8-17.7 17.7-17.7h66.1c9.8 0 17.7 7.9 17.7 17.7 0 9.7-7.9 17.7-17.7 17.7h-66.1c-9.7 0-17.7-8-17.7-17.7z"/>
	<path id="Layer" class="s0" d="m340.1 99.9c-3.1 0-5.7-2.5-5.7-5.7 0-3.2 2.6-5.8 5.7-5.8 3.2 0 5.8 2.6 5.8 5.8 0 3.2-2.6 5.7-5.8 5.7z"/>
	<path id="Layer" class="s0" d="m316.7 258.3c0-4.3 3.4-7.7 7.7-7.7h98.6c4.3 0 7.7 3.4 7.7 7.7v27.7c0 4.2-3.4 7.6-7.7 7.6h-98.6c-4.3 0-7.7-3.4-7.7-7.6z"/>
	<path id="Layer" class="s1" d="m332.1 263.7c0-2.2 1.7-3.9 3.8-3.9h16.9c2.2 0 3.9 1.7 3.9 3.9v16.9c0 2.1-1.7 3.8-3.9 3.8h-16.9c-2.1 0-3.8-1.7-3.8-3.8z"/>
	<g id="Clip-Path" clip-path="url(#cp1)">
		<g id="Layer">
			<path id="Layer" class="s0" d="m344.4 274.4q-0.2 0-0.3-0.1-0.2 0-0.3-0.1l-3.5-3.6q-0.2-0.2-0.2-0.5 0-0.3 0.2-0.5 0.2-0.3 0.5-0.2 0.4-0.1 0.6 0.2l3 3 3-3.1q0.2-0.2 0.5-0.2 0.3 0 0.5 0.3 0.3 0.2 0.3 0.5 0 0.3-0.3 0.5l-3.5 3.6q-0.1 0.1-0.2 0.1-0.2 0.1-0.3 0.1z"/>
		</g>
	</g>
	<path id="Layer" fill-rule="evenodd" class="s1" d="m368.3 278.3v-1.3q-0.6-0.1-1.2-0.4-0.9-0.4-1.5-1.1-0.5-0.7-0.7-1.7l1.3-0.3q0.3 1.1 1.1 1.6 0.8 0.6 1.9 0.6 1.1 0 1.8-0.5 0.7-0.5 0.7-1.4 0-0.6-0.3-1-0.4-0.4-1.3-0.7l-2.5-0.8q-2.3-0.7-2.3-2.7 0-0.9 0.5-1.6 0.4-0.7 1.2-1.1 0.6-0.3 1.3-0.3v-1.4h1.4v1.4q0.6 0.1 1.2 0.3 0.8 0.4 1.4 1.1 0.5 0.8 0.7 1.8l-1.4 0.2q-0.1-0.6-0.4-1.1-0.4-0.5-1-0.8-0.5-0.3-1.2-0.3-0.7 0-1.2 0.2-0.5 0.3-0.8 0.7-0.3 0.4-0.3 0.9 0 0.5 0.4 0.9 0.4 0.4 1.3 0.7l2.1 0.6q1.4 0.4 2 1.1 0.6 0.7 0.6 1.8 0 1-0.5 1.8-0.5 0.7-1.4 1.1-0.7 0.3-1.5 0.4v1.3zm9.6-1.3q-0.8 0-1.6-0.3-0.7-0.4-1.2-1-0.5-0.6-0.8-1.4l1.4-0.4q0.1 0.6 0.5 1 0.3 0.4 0.8 0.6 0.4 0.2 1 0.2 0.6 0 1.2-0.3 0.5-0.3 0.8-0.9 0.4-0.5 0.4-1.2 0-0.6-0.4-1.2-0.3-0.5-0.8-0.8-0.6-0.3-1.2-0.3-0.8 0-1.3 0.3-0.5 0.3-0.8 0.7l-1.2-0.5 0.3-5.8h6v1.3h-4.7l-0.3 3.4q0.4-0.3 0.8-0.4 0.6-0.3 1.3-0.3 1 0 1.9 0.5 0.8 0.5 1.3 1.3 0.4 0.8 0.4 1.8 0 1.1-0.5 1.9-0.5 0.8-1.4 1.3-0.8 0.5-1.9 0.5zm-1.6-10v-0.5l-0.6 0.5zm-0.2 3.4q-0.2 0.2-0.4 0.3l0.3 0.4zm7.4 8.1l0.1-0.6q0.3 0 0.5-0.1 0.1-0.2 0.2-0.4 0-0.3 0-0.6h-0.8v-1.7h1.5v2q0 0.8-0.4 1.2-0.4 0.4-1.1 0.2zm8.1-13q1 0 1.9 0.5 0.8 0.5 1.3 1.4 0.5 0.9 0.5 2v3.7q0 1.2-0.5 2.1-0.5 0.8-1.4 1.4-0.8 0.5-2 0.5-0.9 0-1.7-0.4-0.8-0.4-1.3-1.1l1-0.9q0.4 0.5 0.9 0.8 0.5 0.3 1.1 0.3 0.8 0 1.3-0.4 0.6-0.3 0.9-0.9 0.3-0.6 0.3-1.2v-1.6q-0.4 0.5-0.9 0.8-0.7 0.4-1.6 0.4-1 0-1.9-0.5-0.8-0.5-1.2-1.3-0.5-0.8-0.5-1.9 0-1 0.5-1.8 0.5-0.9 1.4-1.4 0.8-0.5 1.9-0.5zm2.3 6.2q0.2-0.1 0.3-0.3l-0.3-0.4zm-2.3-4.9q-0.7 0-1.3 0.4-0.5 0.3-0.8 0.8-0.3 0.6-0.3 1.2 0 0.7 0.3 1.2 0.3 0.6 0.8 0.9 0.6 0.3 1.2 0.3 0.7 0 1.3-0.3 0.5-0.3 0.8-0.9 0.3-0.5 0.3-1.2 0-0.6-0.3-1.2-0.3-0.5-0.8-0.8-0.6-0.4-1.2-0.4zm10.7 10v-2h-5.1v-1.3l3.6-7.8h1.6l-3.7 7.8h3.6v-3.1h1.3v3.1h1.2v1.3h-1.2v2zm8.2 0.2q-1.1 0-2-0.4-0.8-0.5-1.3-1.4-0.5-0.8-0.5-1.9v-4.1q0-1 0.5-1.9 0.5-0.8 1.3-1.3 0.9-0.5 2-0.5 1 0 1.9 0.5 0.8 0.5 1.3 1.3 0.5 0.9 0.5 1.9v4.1q0 1.1-0.5 1.9-0.5 0.9-1.3 1.4-0.9 0.4-1.9 0.4zm0-1.3q0.6 0 1.1-0.3 0.6-0.3 0.9-0.8 0.3-0.6 0.3-1.2v-4.2q0-0.7-0.3-1.2-0.3-0.6-0.9-0.9-0.5-0.3-1.1-0.3-0.7 0-1.2 0.3-0.6 0.3-0.9 0.9-0.3 0.5-0.3 1.2v4.2q0 0.6 0.3 1.2 0.3 0.5 0.9 0.8 0.5 0.3 1.2 0.3z"/>
	<path id="Layer" class="s4" d="m222.2 79.2c0-15.7 12.7-28.5 28.4-28.5h236.8c15.7 0 28.4 12.8 28.4 28.5v538.8c0 15.7-12.7 28.5-28.4 28.5h-236.8c-15.7 0-28.4-12.8-28.4-28.5z"/>
	<path id="Layer" class="s5" d="m437.8 23.1c0-11.7 9.5-21.1 21.1-21.1h95.3c11.7 0 21.1 9.4 21.1 21.1v95.3c0 11.6-9.4 21-21.1 21h-95.3c-11.6 0-21.1-9.4-21.1-21z"/>
	<g id="Clip-Path" clip-path="url(#cp2)">
		<g id="Layer">
			<path id="Layer" fill-rule="evenodd" class="s6" d="m473.9 111.7q-3.6 0-6-2.4-2.3-2.3-2.3-5.9v-65.3q0-3.6 2.3-6 2.4-2.4 6-2.4h65.3q3.6 0 6 2.4 2.4 2.4 2.4 6v65.3q0 3.6-2.4 5.9-2.4 2.4-6 2.4zm0-5.1h65.4q1.4 0 2.3-0.9 0.9-0.9 0.9-2.3v-65.3q0-1.5-0.9-2.4-0.9-0.9-2.3-0.9h-65.4q-1.4 0-2.3 0.9-0.9 0.9-0.9 2.4v65.3q0 1.4 0.9 2.3 0.9 0.9 2.3 0.9zm50.2-13.5q-0.7-0.7-0.7-1.9v-10.2q0-1.2 0.7-1.9 0.7-0.7 1.9-0.7 1 0 1.7 0.7 0.8 0.7 0.8 1.9v10.2q0 1.2-0.8 1.9-0.7 0.7-1.7 0.7-1.2 0-1.9-0.7zm-38.6 0q-0.8-0.7-0.8-1.9v-25.6q0-1.2 0.8-1.9 0.7-0.7 1.8-0.7 1.1 0 1.8 0.7 0.7 0.7 0.7 1.9v25.6q0 1.2-0.7 1.9-0.7 0.7-1.8 0.7-1.1 0-1.8-0.7zm19.2 0q-0.7-0.7-0.7-1.9v-41q0-1.1 0.7-1.8 0.8-0.7 1.9-0.7 1.2 0 1.9 0.7 0.7 0.7 0.7 1.8v41q0 1.2-0.7 1.9-0.7 0.7-1.9 0.7-1.1 0-1.9-0.7z"/>
		</g>
	</g>
	<g id="Layer">
		<path id="Layer" class="s1" d="m343.1 582.3c-0.1-7.9 6.3-14.3 14.2-14.3h391.4c7.9 0 14.3 6.4 14.4 14.3l0.4 91.4c0.1 7.9-6.3 14.3-14.2 14.3h-391.4c-7.9 0-14.3-6.4-14.4-14.3z"/>
		<path id="Layer" class="s7" d="m456 597.5l10.7-5.6c5.8-3.1 12.8-3.1 18.6 0l36.9 19.3c4.7 2.4 10.1 2.9 15.1 1.4l38.8-11.8c6.8-2 14.1-0.4 19.3 4.4l14.9 13.5c6.2 5.6 15.1 6.8 22.5 3.1l55.8-28c7.9-4 17.6-2.3 23.6 4.2l27.8 30"/>
		<path id="Layer" class="s8" d="m365.5 628c0-18.5 15-33.5 33.5-33.5 18.5 0 33.5 15 33.5 33.5 0 18.5-15 33.5-33.5 33.5-18.5 0-33.5-15-33.5-33.5z"/>
		<g id="Clip-Path" clip-path="url(#cp3)">
			<g id="Layer">
				<path id="Layer" class="s9" d="m405.2 646q-5.9 0-10.5-3.4-4.6-3.3-6.6-8.6h-7v-4h6.1q-0.1-0.6-0.1-1v-2q0-0.5 0.1-1h-6.1v-4h7q1.9-5.3 6.4-8.6 4.6-3.4 10.5-3.4 3.5 0 6.6 1.2 3 1.2 5.5 3.4l-3.5 3.5q-1.8-1.5-4-2.3-2.1-0.8-4.5-0.8-3.8 0-6.9 1.9-3 2-4.6 5.1h11.5v4h-12.8q-0.1 0.5-0.1 1-0.1 0.4-0.1 1 0 0.5 0.1 1 0 0.4 0.1 1h12.8v4h-11.5q1.7 3.2 4.7 5.1 3.1 1.9 6.9 1.9 2.4 0 4.6-0.8 2.2-0.9 3.9-2.3l3.5 3.5q-2.4 2.2-5.5 3.4-3 1.2-6.5 1.2z"/>
			</g>
		</g>
		<path id="Layer" class="s0" d="m455 645.5c0-0.8 0.7-1.5 1.5-1.5h282c0.8 0 1.5 0.7 1.5 1.5 0 0.8-0.7 1.5-1.5 1.5h-282c-0.8 0-1.5-0.7-1.5-1.5z"/>
		<path id="Layer" class="s9" d="m735 663q1 0 1.9 0.4 0.9 0.4 1.6 1.1 0.7 0.7 1.1 1.6 0.4 0.9 0.4 1.9 0 1-0.4 1.9-0.4 0.9-1.1 1.6-0.7 0.7-1.6 1.1-0.9 0.4-1.9 0.4h-20q-1 0-1.9-0.4-0.9-0.4-1.6-1.1-0.7-0.7-1.1-1.6-0.4-0.9-0.4-1.9 0-1 0.4-1.9 0.4-0.9 1.1-1.6 0.7-0.7 1.6-1.1 0.9-0.4 1.9-0.4z"/>
		<path id="Layer" class="s0" d="m515.6 663q0.1 0 0.2 0c1.4 0 2.7 0.6 3.7 1.5 1 1 1.5 2.3 1.5 3.6 0 1.3-0.6 2.6-1.6 3.5-1 0.9-2.4 1.4-3.8 1.4h-55.4c-1.4 0-2.7-0.6-3.7-1.5-1-0.9-1.5-2.2-1.5-3.5 0-1.3 0.5-2.6 1.5-3.5 1-0.9 2.3-1.5 3.7-1.5z"/>
		<path id="Layer" class="s10" d="m345.1 582.3c-0.1-6.8 5.4-12.3 12.2-12.3h391.4c6.8 0 12.3 5.5 12.4 12.3l0.4 91.4c0 6.8-5.4 12.3-12.2 12.3h-391.4c-6.8 0-12.4-5.5-12.4-12.3z"/>
	</g>
</svg>