<svg width="771" height="688" viewBox="0 0 771 688" fill="none" xmlns="http://www.w3.org/2000/svg">
<path d="M19.4821 374.479C22.1124 374.479 24.2023 372.389 24.2023 369.759C24.2023 367.128 22.1124 365.038 19.4821 365.038C16.8517 365.038 14.7618 367.128 14.7618 369.759C14.7618 372.389 16.8517 374.479 19.4821 374.479ZM52.8885 374.479C55.5189 374.479 57.6088 372.389 57.6088 369.759C57.6088 367.128 55.5189 365.038 52.8885 365.038C50.2582 365.038 48.1683 367.128 48.1683 369.759C48.1683 372.389 50.2582 374.479 52.8885 374.479ZM86.295 374.479C88.9254 374.479 91.0153 372.389 91.0153 369.759C91.0153 367.128 88.9254 365.038 86.295 365.038C83.6646 365.038 81.5748 367.128 81.5748 369.759C81.5748 372.389 83.6646 374.479 86.295 374.479ZM119.701 374.479C122.332 374.479 124.422 372.389 124.422 369.759C124.422 367.128 122.332 365.038 119.701 365.038C117.071 365.038 114.981 367.128 114.981 369.759C114.981 372.389 117.071 374.479 119.701 374.479ZM153.108 374.479C155.738 374.479 157.828 372.389 157.828 369.759C157.828 367.128 155.738 365.038 153.108 365.038C150.478 365.038 148.388 367.128 148.388 369.759C148.388 372.389 150.478 374.479 153.108 374.479ZM186.514 374.479C189.145 374.479 191.235 372.389 191.235 369.759C191.235 367.128 189.145 365.038 186.514 365.038C183.884 365.038 181.794 367.128 181.794 369.759C181.794 372.389 183.884 374.479 186.514 374.479ZM219.921 374.479C222.551 374.479 224.641 372.389 224.641 369.759C224.641 367.128 222.551 365.038 219.921 365.038C217.291 365.038 215.201 367.128 215.201 369.759C215.201 372.389 217.291 374.479 219.921 374.479ZM253.327 374.479C255.958 374.479 258.048 372.389 258.048 369.759C258.048 367.128 255.958 365.038 253.327 365.038C250.697 365.038 248.607 367.128 248.607 369.759C248.607 372.389 250.697 374.479 253.327 374.479ZM286.734 374.479C289.364 374.479 291.454 372.389 291.454 369.759C291.454 367.128 289.364 365.038 286.734 365.038C284.104 365.038 282.014 367.128 282.014 369.759C282.014 372.389 284.104 374.479 286.734 374.479ZM320.14 374.479C322.771 374.479 324.861 372.389 324.861 369.759C324.861 367.128 322.771 365.038 320.14 365.038C317.51 365.038 315.42 367.128 315.42 369.759C315.42 372.389 317.51 374.479 320.14 374.479ZM353.547 374.479C356.177 374.479 358.267 372.389 358.267 369.759C358.267 367.128 356.177 365.038 353.547 365.038C350.916 365.038 348.827 367.128 348.827 369.759C348.827 372.389 350.916 374.479 353.547 374.479ZM386.953 374.479C389.584 374.479 391.674 372.389 391.674 369.759C391.674 367.128 389.584 365.038 386.953 365.038C384.323 365.038 382.233 367.128 382.233 369.759C382.233 372.389 384.323 374.479 386.953 374.479ZM19.4821 425.479C22.1124 425.479 24.2023 423.389 24.2023 420.759C24.2023 418.128 22.1124 416.038 19.4821 416.038C16.8517 416.038 14.7618 418.128 14.7618 420.759C14.7618 423.389 16.8517 425.479 19.4821 425.479ZM52.8885 425.479C55.5189 425.479 57.6088 423.389 57.6088 420.759C57.6088 418.128 55.5189 416.038 52.8885 416.038C50.2582 416.038 48.1683 418.128 48.1683 420.759C48.1683 423.389 50.2582 425.479 52.8885 425.479ZM86.295 425.479C88.9254 425.479 91.0153 423.389 91.0153 420.759C91.0153 418.128 88.9254 416.038 86.295 416.038C83.6646 416.038 81.5748 418.128 81.5748 420.759C81.5748 423.389 83.6646 425.479 86.295 425.479ZM119.701 425.479C122.332 425.479 124.422 423.389 124.422 420.759C124.422 418.128 122.332 416.038 119.701 416.038C117.071 416.038 114.981 418.128 114.981 420.759C114.981 423.389 117.071 425.479 119.701 425.479ZM153.108 425.479C155.738 425.479 157.828 423.389 157.828 420.759C157.828 418.128 155.738 416.038 153.108 416.038C150.478 416.038 148.388 418.128 148.388 420.759C148.388 423.389 150.478 425.479 153.108 425.479ZM186.514 425.479C189.145 425.479 191.235 423.389 191.235 420.759C191.235 418.128 189.145 416.038 186.514 416.038C183.884 416.038 181.794 418.128 181.794 420.759C181.794 423.389 183.884 425.479 186.514 425.479ZM219.921 425.479C222.551 425.479 224.641 423.389 224.641 420.759C224.641 418.128 222.551 416.038 219.921 416.038C217.291 416.038 215.201 418.128 215.201 420.759C215.201 423.389 217.291 425.479 219.921 425.479ZM253.327 425.479C255.958 425.479 258.048 423.389 258.048 420.759C258.048 418.128 255.958 416.038 253.327 416.038C250.697 416.038 248.607 418.128 248.607 420.759C248.607 423.389 250.697 425.479 253.327 425.479ZM286.734 425.479C289.364 425.479 291.454 423.389 291.454 420.759C291.454 418.128 289.364 416.038 286.734 416.038C284.104 416.038 282.014 418.128 282.014 420.759C282.014 423.389 284.104 425.479 286.734 425.479ZM320.14 425.479C322.771 425.479 324.861 423.389 324.861 420.759C324.861 418.128 322.771 416.038 320.14 416.038C317.51 416.038 315.42 418.128 315.42 420.759C315.42 423.389 317.51 425.479 320.14 425.479ZM353.547 425.479C356.177 425.479 358.267 423.389 358.267 420.759C358.267 418.128 356.177 416.038 353.547 416.038C350.916 416.038 348.827 418.128 348.827 420.759C348.827 423.389 350.916 425.479 353.547 425.479ZM386.953 425.479C389.584 425.479 391.674 423.389 391.674 420.759C391.674 418.128 389.584 416.038 386.953 416.038C384.323 416.038 382.233 418.128 382.233 420.759C382.233 423.389 384.323 425.479 386.953 425.479ZM153.108 476.479C155.738 476.479 157.828 474.389 157.828 471.759C157.828 469.128 155.738 467.038 153.108 467.038C150.478 467.038 148.388 469.128 148.388 471.759C148.388 474.389 150.478 476.479 153.108 476.479ZM186.514 476.479C189.145 476.479 191.235 474.389 191.235 471.759C191.235 469.128 189.145 467.038 186.514 467.038C183.884 467.038 181.794 469.128 181.794 471.759C181.794 474.389 183.884 476.479 186.514 476.479ZM219.921 476.479C222.551 476.479 224.641 474.389 224.641 471.759C224.641 469.128 222.551 467.038 219.921 467.038C217.291 467.038 215.201 469.128 215.201 471.759C215.201 474.389 217.291 476.479 219.921 476.479ZM253.327 476.479C255.958 476.479 258.048 474.389 258.048 471.759C258.048 469.128 255.958 467.038 253.327 467.038C250.697 467.038 248.607 469.128 248.607 471.759C248.607 474.389 250.697 476.479 253.327 476.479ZM286.734 476.479C289.364 476.479 291.454 474.389 291.454 471.759C291.454 469.128 289.364 467.038 286.734 467.038C284.104 467.038 282.014 469.128 282.014 471.759C282.014 474.389 284.104 476.479 286.734 476.479ZM320.14 476.479C322.771 476.479 324.861 474.389 324.861 471.759C324.861 469.128 322.771 467.038 320.14 467.038C317.51 467.038 315.42 469.128 315.42 471.759C315.42 474.389 317.51 476.479 320.14 476.479ZM353.547 476.479C356.177 476.479 358.267 474.389 358.267 471.759C358.267 469.128 356.177 467.038 353.547 467.038C350.916 467.038 348.827 469.128 348.827 471.759C348.827 474.389 350.916 476.479 353.547 476.479ZM386.953 476.479C389.584 476.479 391.674 474.389 391.674 471.759C391.674 469.128 389.584 467.038 386.953 467.038C384.323 467.038 382.233 469.128 382.233 471.759C382.233 474.389 384.323 476.479 386.953 476.479Z" fill="#122F89"/>
<path d="M384.046 196.142C386.676 196.142 388.766 194.052 388.766 191.422C388.766 188.791 386.676 186.701 384.046 186.701C381.415 186.701 379.326 188.791 379.326 191.422C379.326 194.052 381.415 196.142 384.046 196.142ZM417.452 196.142C420.083 196.142 422.173 194.052 422.173 191.422C422.173 188.791 420.083 186.701 417.452 186.701C414.822 186.701 412.732 188.791 412.732 191.422C412.732 194.052 414.822 196.142 417.452 196.142ZM450.859 196.142C453.489 196.142 455.579 194.052 455.579 191.422C455.579 188.791 453.489 186.701 450.859 186.701C448.228 186.701 446.138 188.791 446.138 191.422C446.138 194.052 448.228 196.142 450.859 196.142ZM484.265 196.142C486.896 196.142 488.985 194.052 488.985 191.422C488.985 188.791 486.896 186.701 484.265 186.701C481.635 186.701 479.545 188.791 479.545 191.422C479.545 194.052 481.635 196.142 484.265 196.142ZM517.672 196.142C520.302 196.142 522.392 194.052 522.392 191.422C522.392 188.791 520.302 186.701 517.672 186.701C515.041 186.701 512.951 188.791 512.951 191.422C512.951 194.052 515.041 196.142 517.672 196.142ZM551.078 196.142C553.709 196.142 555.798 194.052 555.798 191.422C555.798 188.791 553.709 186.701 551.078 186.701C548.448 186.701 546.358 188.791 546.358 191.422C546.358 194.052 548.448 196.142 551.078 196.142ZM584.485 196.142C587.115 196.142 589.205 194.052 589.205 191.422C589.205 188.791 587.115 186.701 584.485 186.701C581.854 186.701 579.764 188.791 579.764 191.422C579.764 194.052 581.854 196.142 584.485 196.142ZM617.891 196.142C620.521 196.142 622.611 194.052 622.611 191.422C622.611 188.791 620.521 186.701 617.891 186.701C615.261 186.701 613.171 188.791 613.171 191.422C613.171 194.052 615.261 196.142 617.891 196.142ZM651.298 196.142C653.928 196.142 656.018 194.052 656.018 191.422C656.018 188.791 653.928 186.701 651.298 186.701C648.667 186.701 646.577 188.791 646.577 191.422C646.577 194.052 648.667 196.142 651.298 196.142ZM684.704 196.142C687.334 196.142 689.424 194.052 689.424 191.422C689.424 188.791 687.334 186.701 684.704 186.701C682.074 186.701 679.984 188.791 679.984 191.422C679.984 194.052 682.074 196.142 684.704 196.142ZM718.111 196.142C720.741 196.142 722.831 194.052 722.831 191.422C722.831 188.791 720.741 186.701 718.111 186.701C715.48 186.701 713.39 188.791 713.39 191.422C713.39 194.052 715.48 196.142 718.111 196.142ZM751.517 196.142C754.147 196.142 756.237 194.052 756.237 191.422C756.237 188.791 754.147 186.701 751.517 186.701C748.887 186.701 746.797 188.791 746.797 191.422C746.797 194.052 748.887 196.142 751.517 196.142ZM384.046 247.142C386.676 247.142 388.766 245.052 388.766 242.422C388.766 239.791 386.676 237.701 384.046 237.701C381.415 237.701 379.326 239.791 379.326 242.422C379.326 245.052 381.415 247.142 384.046 247.142ZM417.452 247.142C420.083 247.142 422.173 245.052 422.173 242.422C422.173 239.791 420.083 237.701 417.452 237.701C414.822 237.701 412.732 239.791 412.732 242.422C412.732 245.052 414.822 247.142 417.452 247.142ZM450.859 247.142C453.489 247.142 455.579 245.052 455.579 242.422C455.579 239.791 453.489 237.701 450.859 237.701C448.228 237.701 446.138 239.791 446.138 242.422C446.138 245.052 448.228 247.142 450.859 247.142ZM484.265 247.142C486.896 247.142 488.985 245.052 488.985 242.422C488.985 239.791 486.896 237.701 484.265 237.701C481.635 237.701 479.545 239.791 479.545 242.422C479.545 245.052 481.635 247.142 484.265 247.142ZM517.672 247.142C520.302 247.142 522.392 245.052 522.392 242.422C522.392 239.791 520.302 237.701 517.672 237.701C515.041 237.701 512.951 239.791 512.951 242.422C512.951 245.052 515.041 247.142 517.672 247.142ZM551.078 247.142C553.709 247.142 555.798 245.052 555.798 242.422C555.798 239.791 553.709 237.701 551.078 237.701C548.448 237.701 546.358 239.791 546.358 242.422C546.358 245.052 548.448 247.142 551.078 247.142ZM584.485 247.142C587.115 247.142 589.205 245.052 589.205 242.422C589.205 239.791 587.115 237.701 584.485 237.701C581.854 237.701 579.764 239.791 579.764 242.422C579.764 245.052 581.854 247.142 584.485 247.142ZM617.891 247.142C620.521 247.142 622.611 245.052 622.611 242.422C622.611 239.791 620.521 237.701 617.891 237.701C615.261 237.701 613.171 239.791 613.171 242.422C613.171 245.052 615.261 247.142 617.891 247.142ZM651.298 247.142C653.928 247.142 656.018 245.052 656.018 242.422C656.018 239.791 653.928 237.701 651.298 237.701C648.667 237.701 646.577 239.791 646.577 242.422C646.577 245.052 648.667 247.142 651.298 247.142ZM684.704 247.142C687.334 247.142 689.424 245.052 689.424 242.422C689.424 239.791 687.334 237.701 684.704 237.701C682.074 237.701 679.984 239.791 679.984 242.422C679.984 245.052 682.074 247.142 684.704 247.142ZM718.111 247.142C720.741 247.142 722.831 245.052 722.831 242.422C722.831 239.791 720.741 237.701 718.111 237.701C715.48 237.701 713.39 239.791 713.39 242.422C713.39 245.052 715.48 247.142 718.111 247.142ZM751.517 247.142C754.147 247.142 756.237 245.052 756.237 242.422C756.237 239.791 754.147 237.701 751.517 237.701C748.887 237.701 746.797 239.791 746.797 242.422C746.797 245.052 748.887 247.142 751.517 247.142ZM384.046 298.142C386.676 298.142 388.766 296.052 388.766 293.422C388.766 290.791 386.676 288.701 384.046 288.701C381.415 288.701 379.326 290.791 379.326 293.422C379.326 296.052 381.415 298.142 384.046 298.142ZM417.452 298.142C420.083 298.142 422.173 296.052 422.173 293.422C422.173 290.791 420.083 288.701 417.452 288.701C414.822 288.701 412.732 290.791 412.732 293.422C412.732 296.052 414.822 298.142 417.452 298.142ZM450.859 298.142C453.489 298.142 455.579 296.052 455.579 293.422C455.579 290.791 453.489 288.701 450.859 288.701C448.228 288.701 446.138 290.791 446.138 293.422C446.138 296.052 448.228 298.142 450.859 298.142ZM484.265 298.142C486.896 298.142 488.985 296.052 488.985 293.422C488.985 290.791 486.896 288.701 484.265 288.701C481.635 288.701 479.545 290.791 479.545 293.422C479.545 296.052 481.635 298.142 484.265 298.142ZM517.672 298.142C520.302 298.142 522.392 296.052 522.392 293.422C522.392 290.791 520.302 288.701 517.672 288.701C515.041 288.701 512.951 290.791 512.951 293.422C512.951 296.052 515.041 298.142 517.672 298.142ZM551.078 298.142C553.709 298.142 555.798 296.052 555.798 293.422C555.798 290.791 553.709 288.701 551.078 288.701C548.448 288.701 546.358 290.791 546.358 293.422C546.358 296.052 548.448 298.142 551.078 298.142ZM584.485 298.142C587.115 298.142 589.205 296.052 589.205 293.422C589.205 290.791 587.115 288.701 584.485 288.701C581.854 288.701 579.764 290.791 579.764 293.422C579.764 296.052 581.854 298.142 584.485 298.142ZM617.891 298.142C620.521 298.142 622.611 296.052 622.611 293.422C622.611 290.791 620.521 288.701 617.891 288.701C615.261 288.701 613.171 290.791 613.171 293.422C613.171 296.052 615.261 298.142 617.891 298.142Z" fill="#122F89"/>
<rect x="222.153" y="50.7336" width="293.641" height="595.738" rx="28.4417" fill="white"/>
<path d="M245.211 290.182L293.716 176.814C298.542 165.533 315.101 167.5 317.15 179.598L349.909 373.02C351.662 383.372 364.745 386.909 371.475 378.85L405.85 337.691C409.816 332.942 416.693 331.879 421.908 335.209L448.87 352.423C455.799 356.847 465.034 353.359 467.308 345.459L491.962 259.818" stroke="#FF0000" stroke-width="3.84347"/>
<rect x="318.237" y="76.1006" width="101.468" height="35.3599" rx="17.68" stroke="#122F89" stroke-width="3.07478"/>
<circle cx="340.147" cy="94.1649" r="5.7652" fill="#122F89"/>
<rect x="316.7" y="250.594" width="114.033" height="43.0469" rx="7.68694" fill="#122F89"/>
<rect x="332.074" y="259.818" width="24.5982" height="24.5982" rx="3.84347" fill="white"/>
<mask id="mask0_2_1186" style="mask-type:alpha" maskUnits="userSpaceOnUse" x="335" y="262" width="19" height="20">
<rect x="335.148" y="262.893" width="18.4487" height="18.4487" fill="#D9D9D9"/>
</mask>
<g mask="url(#mask0_2_1186)">
<path d="M344.371 274.385C344.269 274.385 344.173 274.369 344.083 274.336C343.993 274.304 343.91 274.25 343.833 274.173L340.278 270.618C340.137 270.477 340.07 270.301 340.077 270.089C340.083 269.878 340.156 269.702 340.297 269.561C340.438 269.42 340.618 269.35 340.835 269.35C341.053 269.35 341.232 269.42 341.373 269.561L344.371 272.559L347.388 269.542C347.529 269.401 347.706 269.334 347.917 269.34C348.128 269.346 348.304 269.42 348.445 269.561C348.586 269.702 348.657 269.881 348.657 270.099C348.657 270.317 348.586 270.496 348.445 270.637L344.909 274.173C344.833 274.25 344.749 274.304 344.66 274.336C344.57 274.369 344.474 274.385 344.371 274.385Z" fill="#122F89"/>
</g>
<path d="M368.348 278.34V276.565H369.716V278.34H368.348ZM368.348 266.003V264.219H369.716V266.003H368.348ZM369.14 277.049C368.391 277.049 367.718 276.916 367.118 276.649C366.524 276.378 366.034 275.996 365.65 275.504C365.265 275.007 365.014 274.423 364.896 273.751L366.242 273.528C366.406 274.21 366.752 274.751 367.279 275.15C367.812 275.55 368.453 275.75 369.201 275.75C369.954 275.75 370.564 275.568 371.031 275.204C371.497 274.84 371.73 274.371 371.73 273.797C371.73 273.377 371.605 273.039 371.354 272.783C371.108 272.526 370.692 272.309 370.108 272.129L367.579 271.345C366.067 270.874 365.312 269.972 365.312 268.639C365.312 268.014 365.463 267.468 365.765 267.002C366.073 266.531 366.5 266.167 367.049 265.911C367.602 265.649 368.245 265.521 368.978 265.526C369.691 265.531 370.326 265.665 370.885 265.926C371.443 266.182 371.904 266.551 372.268 267.033C372.637 267.515 372.886 268.091 373.014 268.762L371.63 269.016C371.558 268.581 371.4 268.199 371.154 267.871C370.913 267.543 370.605 267.289 370.231 267.11C369.857 266.925 369.437 266.83 368.971 266.825C368.535 266.82 368.143 266.892 367.794 267.041C367.451 267.189 367.18 267.397 366.98 267.663C366.78 267.93 366.68 268.235 366.68 268.578C366.68 268.952 366.818 269.27 367.095 269.531C367.377 269.787 367.818 270.008 368.417 270.192L370.493 270.807C371.405 271.079 372.063 271.445 372.468 271.906C372.873 272.362 373.075 272.972 373.075 273.736C373.075 274.397 372.911 274.976 372.583 275.473C372.261 275.97 371.802 276.357 371.207 276.634C370.618 276.911 369.929 277.049 369.14 277.049ZM377.958 277.049C377.389 277.049 376.858 276.931 376.366 276.695C375.88 276.46 375.462 276.137 375.113 275.727C374.77 275.312 374.524 274.835 374.375 274.297L375.69 273.943C375.782 274.307 375.946 274.622 376.182 274.889C376.418 275.15 376.692 275.355 377.004 275.504C377.322 275.647 377.653 275.719 377.996 275.719C378.447 275.719 378.852 275.612 379.211 275.396C379.574 275.176 379.861 274.886 380.071 274.528C380.282 274.164 380.387 273.767 380.387 273.336C380.387 272.89 380.276 272.488 380.056 272.129C379.841 271.765 379.551 271.478 379.187 271.268C378.824 271.058 378.426 270.953 377.996 270.953C377.509 270.953 377.091 271.056 376.743 271.261C376.4 271.461 376.128 271.707 375.928 271.999L374.714 271.537L375.052 265.749H380.994V267.048H375.713L376.32 266.479L376.036 271.115L375.736 270.723C376.044 270.395 376.41 270.141 376.835 269.962C377.266 269.782 377.704 269.693 378.15 269.693C378.836 269.693 379.451 269.854 379.995 270.177C380.538 270.495 380.968 270.93 381.286 271.484C381.604 272.032 381.763 272.649 381.763 273.336C381.763 274.018 381.588 274.64 381.24 275.204C380.891 275.763 380.428 276.211 379.849 276.549C379.275 276.882 378.644 277.049 377.958 277.049ZM383.447 278.54L383.532 277.902C383.747 277.918 383.908 277.877 384.016 277.779C384.124 277.682 384.193 277.549 384.224 277.38C384.254 277.21 384.259 277.023 384.239 276.818H383.447V275.081H384.954V277.049C384.954 277.587 384.821 277.992 384.554 278.264C384.293 278.535 383.924 278.627 383.447 278.54ZM391.5 265.526C392.208 265.526 392.846 265.695 393.414 266.034C393.983 266.372 394.434 266.833 394.767 267.417C395.106 268.001 395.275 268.665 395.275 269.408V273.09C395.275 273.864 395.108 274.548 394.775 275.143C394.442 275.737 393.981 276.203 393.391 276.542C392.807 276.88 392.136 277.049 391.377 277.049C390.773 277.049 390.206 276.923 389.679 276.672C389.156 276.421 388.713 276.065 388.349 275.604L389.371 274.697C389.597 275.014 389.886 275.271 390.24 275.465C390.593 275.655 390.973 275.75 391.377 275.75C391.869 275.75 392.302 275.632 392.676 275.396C393.056 275.161 393.35 274.853 393.56 274.474C393.776 274.095 393.883 273.685 393.883 273.244V271.022L394.183 271.361C393.865 271.822 393.458 272.191 392.961 272.468C392.464 272.744 391.923 272.883 391.339 272.883C390.652 272.883 390.037 272.721 389.494 272.398C388.951 272.076 388.52 271.64 388.203 271.092C387.885 270.538 387.726 269.918 387.726 269.231C387.726 268.545 387.898 267.922 388.241 267.363C388.584 266.8 389.041 266.354 389.609 266.026C390.183 265.693 390.814 265.526 391.5 265.526ZM391.5 266.848C391.06 266.848 390.657 266.956 390.294 267.171C389.935 267.381 389.648 267.668 389.433 268.032C389.217 268.391 389.11 268.791 389.11 269.231C389.11 269.672 389.215 270.074 389.425 270.438C389.64 270.797 389.927 271.084 390.286 271.299C390.65 271.514 391.052 271.622 391.493 271.622C391.933 271.622 392.336 271.514 392.7 271.299C393.063 271.084 393.35 270.797 393.56 270.438C393.776 270.074 393.883 269.672 393.883 269.231C393.883 268.796 393.776 268.399 393.56 268.04C393.35 267.676 393.063 267.386 392.7 267.171C392.341 266.956 391.941 266.848 391.5 266.848ZM402.21 276.818V274.781H397.121V273.482L400.772 265.749H402.325L398.674 273.482H402.21V270.369H403.593V273.482H404.746V274.781H403.593V276.818H402.21ZM410.323 277.049C409.605 277.049 408.965 276.888 408.401 276.565C407.842 276.237 407.399 275.793 407.071 275.235C406.748 274.671 406.587 274.031 406.587 273.313V269.254C406.587 268.537 406.748 267.896 407.071 267.333C407.399 266.769 407.842 266.326 408.401 266.003C408.965 265.68 409.605 265.519 410.323 265.519C411.04 265.519 411.681 265.68 412.244 266.003C412.808 266.326 413.251 266.769 413.574 267.333C413.897 267.896 414.058 268.537 414.058 269.254V273.313C414.058 274.031 413.897 274.671 413.574 275.235C413.251 275.793 412.808 276.237 412.244 276.565C411.681 276.888 411.04 277.049 410.323 277.049ZM410.323 275.735C410.758 275.735 411.153 275.629 411.506 275.419C411.86 275.209 412.142 274.927 412.352 274.574C412.562 274.215 412.667 273.82 412.667 273.39V269.17C412.667 268.734 412.562 268.34 412.352 267.986C412.142 267.632 411.86 267.351 411.506 267.141C411.153 266.93 410.758 266.825 410.323 266.825C409.892 266.825 409.498 266.93 409.139 267.141C408.785 267.351 408.503 267.632 408.293 267.986C408.083 268.34 407.978 268.734 407.978 269.17V273.39C407.978 273.82 408.083 274.215 408.293 274.574C408.503 274.927 408.785 275.209 409.139 275.419C409.498 275.629 409.892 275.735 410.323 275.735Z" fill="white"/>
<rect x="222.153" y="50.7336" width="293.641" height="595.738" rx="28.4417" stroke="#122F89" stroke-width="4.61216"/>
<rect x="437.849" y="2" width="137.44" height="137.44" rx="21.0608" fill="white" stroke="#0090B9" stroke-width="4"/>
<mask id="mask1_2_1186" style="mask-type:alpha" maskUnits="userSpaceOnUse" x="445" y="9" width="124" height="124">
<rect x="445.076" y="9.22412" width="122.991" height="122.991" fill="#D9D9D9"/>
</mask>
<g mask="url(#mask1_2_1186)">
<path d="M487.225 93.7805C487.993 93.7805 488.614 93.5465 489.085 93.0784C489.553 92.6069 489.787 91.9869 489.787 91.2182V65.595C489.787 64.8263 489.553 64.2063 489.085 63.7348C488.614 63.2668 487.993 63.0327 487.225 63.0327C486.542 63.0327 485.944 63.2668 485.431 63.7348C484.919 64.2063 484.662 64.8263 484.662 65.595V91.2182C484.662 91.9869 484.919 92.6069 485.431 93.0784C485.944 93.5465 486.542 93.7805 487.225 93.7805ZM506.57 93.7805C507.339 93.7805 507.959 93.5465 508.43 93.0784C508.899 92.6069 509.133 91.9869 509.133 91.2182V50.2212C509.133 49.4525 508.899 48.8324 508.43 48.3609C507.959 47.8929 507.339 47.6588 506.57 47.6588C505.802 47.6588 505.181 47.8929 504.71 48.3609C504.242 48.8324 504.008 49.4525 504.008 50.2212V91.2182C504.008 91.9869 504.242 92.6069 504.71 93.0784C505.181 93.5465 505.802 93.7805 506.57 93.7805ZM525.916 93.7805C526.599 93.7805 527.197 93.5465 527.709 93.0784C528.222 92.6069 528.478 91.9869 528.478 91.2182V80.9689C528.478 80.2002 528.222 79.5801 527.709 79.1087C527.197 78.6406 526.599 78.4066 525.916 78.4066C525.147 78.4066 524.529 78.6406 524.061 79.1087C523.589 79.5801 523.353 80.2002 523.353 80.9689V91.2182C523.353 91.9869 523.589 92.6069 524.061 93.0784C524.529 93.5465 525.147 93.7805 525.916 93.7805ZM473.901 111.717C471.509 111.717 469.524 110.927 467.946 109.349C466.364 107.767 465.573 105.781 465.573 103.389V38.0502C465.573 35.6587 466.364 33.6737 467.946 32.0954C469.524 30.5136 471.509 29.7227 473.901 29.7227H539.24C541.631 29.7227 543.618 30.5136 545.2 32.0954C546.778 33.6737 547.567 35.6587 547.567 38.0502V103.389C547.567 105.781 546.778 107.767 545.2 109.349C543.618 110.927 541.631 111.717 539.24 111.717H473.901ZM473.901 106.592H539.24C540.179 106.592 540.948 106.293 541.546 105.695C542.144 105.097 542.443 104.329 542.443 103.389V38.0502C542.443 37.1107 542.144 36.342 541.546 35.7441C540.948 35.1462 540.179 34.8473 539.24 34.8473H473.901C472.961 34.8473 472.193 35.1462 471.595 35.7441C470.997 36.342 470.698 37.1107 470.698 38.0502V103.389C470.698 104.329 470.997 105.097 471.595 105.695C472.193 106.293 472.961 106.592 473.901 106.592Z" fill="#FF413C"/>
</g>
<g filter="url(#filter0_b_2_1186)">
<rect width="420" height="120" rx="14.2814" transform="matrix(1 0 0.00488691 0.999988 343 568)" fill="white"/>
<path d="M456 597.5L466.718 591.873C472.531 588.821 479.472 588.817 485.288 591.861L522.241 611.201C526.893 613.635 532.315 614.143 537.338 612.614L576.121 600.811C582.867 598.758 590.195 600.409 595.409 605.156L610.332 618.742C616.457 624.319 625.385 625.543 632.784 621.82L688.566 593.758C696.523 589.755 706.168 591.497 712.223 598.03L740 628" stroke="#0090B9" stroke-width="1.45387"/>
<rect x="365.5" y="594.5" width="67" height="67" rx="33.5" stroke="#122F89" stroke-width="3"/>
<mask id="mask2_2_1186" style="mask-type:alpha" maskUnits="userSpaceOnUse" x="375" y="604" width="49" height="48">
<rect width="48" height="48" transform="matrix(1 0 0.00488691 0.999988 375 604)" fill="#D9D9D9"/>
</mask>
<g mask="url(#mask2_2_1186)">
<path d="M405.205 646C401.272 646 397.766 644.883 394.689 642.65C391.611 640.416 389.431 637.533 388.147 634H381.147L381.127 630H387.227C387.159 629.633 387.124 629.3 387.122 629L387.112 627C387.111 626.7 387.143 626.366 387.207 626H381.107L381.088 622H388.088C389.337 618.467 391.49 615.583 394.546 613.35C397.601 611.117 401.096 610 405.029 610C407.329 610 409.507 610.4 411.561 611.2C413.614 612 415.445 613.133 417.052 614.6L413.569 618.1C412.397 617.133 411.086 616.375 409.634 615.824C408.18 615.275 406.654 615 405.054 615C402.554 615 400.282 615.642 398.239 616.926C396.195 618.209 394.644 619.9 393.588 622H405.088L405.107 626H392.307C392.243 626.366 392.194 626.7 392.162 627C392.131 627.3 392.115 627.633 392.117 628C392.119 628.366 392.137 628.7 392.172 629C392.207 629.3 392.259 629.633 392.327 630H405.127L405.147 634H393.647C394.724 636.1 396.29 637.792 398.347 639.076C400.403 640.358 402.681 641 405.181 641C406.781 641 408.321 640.724 409.801 640.174C411.282 639.624 412.57 638.866 413.666 637.9L417.183 641.4C415.59 642.866 413.771 644 411.725 644.8C409.679 645.6 407.505 646 405.205 646Z" fill="#0090B9"/>
</g>
<rect x="455" y="644" width="285" height="3" rx="1.5" fill="#122F89"/>
<path d="M715 663C714.344 663 713.693 663.129 713.087 663.381C712.48 663.632 711.929 664 711.464 664.464C711 664.929 710.632 665.48 710.381 666.087C710.129 666.693 710 667.343 710 668C710 668.657 710.129 669.307 710.381 669.913C710.632 670.52 711 671.071 711.464 671.536C711.929 672 712.48 672.368 713.087 672.619C713.693 672.871 714.344 673 715 673H735C735.656 673 736.307 672.871 736.913 672.619C737.52 672.368 738.071 672 738.535 671.536C739 671.071 739.368 670.52 739.619 669.913C739.871 669.307 740 668.657 740 668C740 667.343 739.871 666.693 739.619 666.087C739.368 665.48 739 664.929 738.535 664.464C738.071 664 737.52 663.632 736.913 663.381C736.307 663.129 735.656 663 735 663H715Z" fill="#0090B9"/>
<path d="M460.212 663.001C458.822 663.022 457.497 663.558 456.521 664.493C455.546 665.428 455 666.688 455 668C455 669.312 455.546 670.572 456.521 671.507C457.497 672.442 458.822 672.978 460.212 672.999H515.625C517.028 673.019 518.383 672.512 519.39 671.59C520.398 670.667 520.977 669.405 520.999 668.08C521.022 666.755 520.486 665.476 519.51 664.524C518.535 663.571 517.198 663.024 515.795 663.001C515.738 663 515.681 663 515.625 663.001H460.212Z" fill="#122F89"/>
<rect x="2.00977" y="1.99998" width="416" height="116" rx="12.2814" transform="matrix(1 0 0.00488691 0.999988 342.99 568)" stroke="#122F89" stroke-width="4"/>
</g>
<defs>
<filter id="filter0_b_2_1186" x="296.91" y="521.91" width="512.766" height="212.178" filterUnits="userSpaceOnUse" color-interpolation-filters="sRGB">
<feFlood flood-opacity="0" result="BackgroundImageFix"/>
<feGaussianBlur in="BackgroundImageFix" stdDeviation="23.0449"/>
<feComposite in2="SourceAlpha" operator="in" result="effect1_backgroundBlur_2_1186"/>
<feBlend mode="normal" in="SourceGraphic" in2="effect1_backgroundBlur_2_1186" result="shape"/>
</filter>
</defs>
</svg>
