<svg width="764" height="508" viewBox="0 0 764 508" fill="none" xmlns="http://www.w3.org/2000/svg">
<g clip-path="url(#clip0_0_1)">
<rect x="267.4" y="206.001" width="174.575" height="351.4" rx="17.9974" transform="rotate(-45 267.4 206.001)" fill="white"/>
<path d="M377.958 295.561L351.111 228.565C348.44 221.898 356.107 215.859 361.963 220.018L455.576 286.514C460.587 290.073 467.465 286.122 466.915 280.001L464.107 248.739C463.783 245.132 466.19 241.845 469.726 241.065L488.01 237.031C492.709 235.994 495.088 230.728 492.759 226.517L467.518 180.867" stroke="#0090B9" stroke-width="2.24968"/>
<rect x="319.577" y="176.731" width="59.3915" height="20.697" rx="10.3485" transform="rotate(-45 319.577 176.731)" stroke="#122F89" stroke-width="1.79974"/>
<circle cx="336.122" cy="175.14" r="3.37452" transform="rotate(-45 336.122 175.14)" fill="#122F89"/>
<rect x="391.162" y="249.588" width="66.8947" height="25.1964" rx="4.49936" transform="rotate(-45 391.162 249.588)" fill="#122F89"/>
<rect x="401.343" y="247.043" width="14.3979" height="14.3979" rx="2.24968" transform="rotate(-45 401.343 247.043)" fill="white"/>
<mask id="mask0_0_1" style="mask-type:alpha" maskUnits="userSpaceOnUse" x="403" y="239" width="17" height="16">
<rect x="403.888" y="247.043" width="10.7985" height="10.7985" transform="rotate(-45 403.888 247.043)" fill="#D9D9D9"/>
</mask>
<g mask="url(#mask0_0_1)">
<path d="M412.46 247.982C412.418 248.024 412.371 248.057 412.321 248.081C412.271 248.105 412.214 248.117 412.15 248.117L409.207 248.117C409.09 248.117 408.99 248.072 408.905 247.981C408.82 247.891 408.778 247.788 408.778 247.671C408.778 247.555 408.823 247.451 408.913 247.361C409.003 247.271 409.106 247.226 409.223 247.226L411.705 247.226L411.705 244.729C411.705 244.612 411.75 244.511 411.84 244.426C411.93 244.341 412.033 244.299 412.15 244.299C412.267 244.299 412.37 244.344 412.46 244.434C412.55 244.524 412.595 244.628 412.595 244.744L412.595 247.671C412.595 247.735 412.583 247.792 412.559 247.842C412.536 247.893 412.503 247.939 412.46 247.982Z" fill="#122F89"/>
</g>
<path d="M424.058 239.73L423.323 238.996L423.889 238.429L424.624 239.164L424.058 239.73ZM418.951 234.624L418.213 233.886L418.78 233.32L419.518 234.058L418.951 234.624ZM423.851 238.868C423.541 239.178 423.207 239.402 422.849 239.54C422.49 239.673 422.13 239.718 421.767 239.673C421.402 239.627 421.057 239.489 420.73 239.26L421.194 238.611C421.544 238.825 421.911 238.905 422.295 238.852C422.681 238.797 423.029 238.615 423.339 238.305C423.651 237.993 423.828 237.666 423.87 237.322C423.912 236.978 423.815 236.688 423.577 236.45C423.403 236.276 423.212 236.188 423.002 236.186C422.794 236.182 422.532 236.264 422.216 236.431L420.844 237.153C420.024 237.584 419.337 237.524 418.786 236.972C418.527 236.713 418.364 236.425 418.296 236.107C418.228 235.784 418.255 235.457 418.376 235.124C418.496 234.786 418.71 234.467 419.015 234.166C419.312 233.873 419.63 233.665 419.97 233.542C420.307 233.417 420.65 233.379 421 233.428C421.352 233.475 421.694 233.61 422.025 233.835L421.557 234.513C421.347 234.362 421.123 234.27 420.886 234.236C420.65 234.2 420.418 234.222 420.189 234.303C419.958 234.381 419.745 234.516 419.55 234.707C419.367 234.885 419.235 235.077 419.152 235.283C419.071 235.486 419.045 235.685 419.072 235.878C419.1 236.071 419.185 236.238 419.327 236.38C419.482 236.535 419.67 236.609 419.893 236.603C420.116 236.592 420.389 236.501 420.714 236.329L421.828 235.725C422.317 235.46 422.742 235.339 423.1 235.362C423.456 235.383 423.793 235.552 424.109 235.868C424.382 236.142 424.554 236.449 424.624 236.791C424.696 237.13 424.667 237.48 424.535 237.841C424.406 238.199 424.178 238.542 423.851 238.868ZM427.501 235.219C427.265 235.454 426.997 235.625 426.696 235.731C426.397 235.835 426.09 235.874 425.776 235.849C425.462 235.819 425.163 235.723 424.879 235.562L425.277 234.872C425.465 234.984 425.664 235.047 425.872 235.06C426.077 235.07 426.276 235.042 426.467 234.974C426.657 234.902 426.824 234.794 426.966 234.652C427.153 234.466 427.276 234.254 427.335 234.016C427.395 233.774 427.393 233.536 427.332 233.3C427.268 233.063 427.147 232.855 426.969 232.677C426.785 232.492 426.573 232.371 426.333 232.314C426.093 232.252 425.855 232.253 425.617 232.317C425.38 232.381 425.172 232.502 424.994 232.68C424.792 232.881 424.662 233.097 424.602 233.326C424.543 233.55 424.532 233.765 424.57 233.968L423.877 234.28L421.621 231.744L424.08 229.285L424.618 229.823L422.432 232.008L422.448 231.522L424.249 233.558L423.963 233.52C423.954 233.257 424.001 233 424.103 232.75C424.207 232.497 424.351 232.279 424.535 232.094C424.82 231.81 425.141 231.622 425.499 231.531C425.856 231.438 426.214 231.44 426.575 231.538C426.933 231.633 427.255 231.823 427.539 232.107C427.821 232.389 428.006 232.719 428.096 233.097C428.183 233.472 428.176 233.85 428.076 234.229C427.977 234.605 427.785 234.934 427.501 235.219ZM430.39 233.564L430.161 233.265C430.256 233.182 430.306 233.098 430.31 233.013C430.315 232.929 430.288 232.845 430.231 232.762C430.174 232.679 430.098 232.6 430.005 232.523L429.677 232.851L428.958 232.132L429.582 231.509L430.396 232.323C430.619 232.546 430.731 232.768 430.734 232.991C430.738 233.212 430.623 233.403 430.39 233.564ZM428.337 224.844C428.629 224.552 428.963 224.358 429.339 224.262C429.714 224.167 430.092 224.171 430.471 224.275C430.853 224.377 431.198 224.581 431.505 224.889L433.029 226.413C433.35 226.733 433.564 227.085 433.672 227.469C433.78 227.853 433.782 228.237 433.678 228.621C433.577 229.003 433.369 229.35 433.055 229.664C432.805 229.915 432.518 230.097 432.196 230.212C431.876 230.324 431.545 230.36 431.203 230.32L431.251 229.521C431.476 229.559 431.702 229.546 431.929 229.48C432.153 229.412 432.35 229.294 432.517 229.127C432.721 228.923 432.851 228.695 432.909 228.443C432.968 228.188 432.963 227.939 432.893 227.695C432.825 227.449 432.7 227.235 432.517 227.052L431.598 226.133L431.862 226.149C431.921 226.471 431.905 226.792 431.814 227.113C431.723 227.433 431.556 227.714 431.315 227.956C431.03 228.24 430.709 228.428 430.351 228.519C429.992 228.61 429.634 228.608 429.275 228.513C428.915 228.415 428.592 228.224 428.308 227.94C428.024 227.656 427.837 227.327 427.748 226.954C427.657 226.578 427.661 226.205 427.761 225.834C427.861 225.458 428.052 225.129 428.337 224.844ZM428.884 225.392C428.702 225.574 428.58 225.785 428.518 226.025C428.457 226.26 428.457 226.498 428.518 226.737C428.577 226.975 428.698 227.185 428.881 227.367C429.063 227.55 429.273 227.673 429.511 227.736C429.748 227.796 429.986 227.796 430.223 227.736C430.463 227.675 430.674 227.553 430.856 227.37C431.039 227.188 431.161 226.977 431.222 226.737C431.284 226.498 431.284 226.26 431.222 226.025C431.161 225.785 431.039 225.574 430.856 225.392C430.676 225.211 430.467 225.091 430.23 225.032C429.992 224.968 429.754 224.967 429.514 225.029C429.276 225.088 429.066 225.209 428.884 225.392ZM437.443 225.086L436.6 224.242L434.494 226.349L433.956 225.811L432.266 221.099L432.909 220.456L434.599 225.168L436.062 223.705L434.774 222.416L435.346 221.844L436.635 223.132L437.112 222.655L437.65 223.193L437.172 223.67L438.015 224.513L437.443 225.086ZM440.896 221.823C440.599 222.12 440.267 222.318 439.9 222.418C439.533 222.514 439.166 222.514 438.799 222.418C438.433 222.318 438.101 222.12 437.804 221.823L436.124 220.143C435.827 219.846 435.629 219.514 435.529 219.148C435.431 218.778 435.431 218.412 435.529 218.047C435.629 217.68 435.827 217.348 436.124 217.051C436.421 216.754 436.753 216.556 437.12 216.456C437.487 216.356 437.853 216.356 438.22 216.456C438.587 216.556 438.919 216.754 439.216 217.051L440.896 218.731C441.193 219.028 441.391 219.36 441.491 219.727C441.589 220.091 441.589 220.458 441.491 220.827C441.391 221.194 441.193 221.526 440.896 221.823ZM440.352 221.279C440.532 221.099 440.652 220.892 440.712 220.659C440.771 220.425 440.771 220.192 440.712 219.959C440.65 219.723 440.53 219.517 440.352 219.338L438.605 217.592C438.425 217.411 438.218 217.292 437.985 217.232C437.752 217.173 437.518 217.173 437.285 217.232C437.052 217.292 436.845 217.411 436.665 217.592C436.486 217.77 436.367 217.977 436.305 218.212C436.246 218.445 436.246 218.679 436.305 218.912C436.365 219.145 436.484 219.352 436.665 219.532L438.411 221.279C438.589 221.457 438.796 221.577 439.032 221.639C439.265 221.698 439.498 221.698 439.732 221.639C439.967 221.577 440.174 221.457 440.352 221.279Z" fill="white"/>
</g>
<rect x="269.309" y="206.001" width="171.875" height="348.7" rx="16.6476" transform="rotate(-45 269.309 206.001)" stroke="#0090B9" stroke-width="2.69962"/>
<g clip-path="url(#clip1_0_1)">
<rect x="661.928" y="307.92" width="174.575" height="351.4" rx="17.9974" transform="rotate(-135 661.928 307.92)" fill="white"/>
<path d="M751.49 197.363L684.493 224.209C677.826 226.881 671.787 219.213 675.946 213.358L742.443 119.744C746.002 114.734 742.051 107.856 735.93 108.405L704.667 111.213C701.06 111.537 697.774 109.131 696.994 105.594L692.959 87.3103C691.922 82.6117 686.656 80.2332 682.446 82.5615L636.796 107.803" stroke="#0090B9" stroke-width="2.24968"/>
<rect x="632.66" y="255.744" width="59.3915" height="20.697" rx="10.3485" transform="rotate(-135 632.66 255.744)" stroke="#122F89" stroke-width="1.79974"/>
<circle cx="631.068" cy="239.2" r="3.37452" transform="rotate(-135 631.068 239.2)" fill="#122F89"/>
<rect x="705.515" y="184.16" width="66.8947" height="25.1964" rx="4.49936" transform="rotate(-135 705.515 184.16)" fill="#122F89"/>
<rect x="702.97" y="173.979" width="14.3979" height="14.3979" rx="2.24968" transform="rotate(-135 702.97 173.979)" fill="white"/>
<mask id="mask1_0_1" style="mask-type:alpha" maskUnits="userSpaceOnUse" x="695" y="156" width="16" height="16">
<rect x="702.969" y="171.434" width="10.7985" height="10.7985" transform="rotate(-135 702.969 171.434)" fill="#D9D9D9"/>
</mask>
<g mask="url(#mask1_0_1)">
<path d="M703.908 162.86C703.95 162.903 703.983 162.949 704.007 163C704.031 163.05 704.043 163.107 704.043 163.171L704.043 166.114C704.043 166.23 703.998 166.331 703.907 166.416C703.817 166.501 703.714 166.543 703.597 166.543C703.481 166.543 703.377 166.498 703.287 166.408C703.197 166.318 703.152 166.214 703.152 166.098L703.152 163.616L700.655 163.616C700.538 163.616 700.437 163.571 700.352 163.481C700.267 163.391 700.225 163.287 700.225 163.171C700.225 163.054 700.27 162.951 700.36 162.86C700.45 162.77 700.554 162.725 700.67 162.725L703.597 162.725C703.661 162.725 703.718 162.737 703.768 162.761C703.819 162.785 703.865 162.818 703.908 162.86Z" fill="#122F89"/>
</g>
<path d="M695.657 151.264L694.922 151.999L694.356 151.433L695.091 150.698L695.657 151.264ZM690.551 156.371L689.813 157.109L689.246 156.543L689.985 155.805L690.551 156.371ZM694.795 151.471C695.105 151.781 695.328 152.115 695.466 152.473C695.6 152.832 695.644 153.192 695.6 153.555C695.553 153.92 695.415 154.266 695.186 154.592L694.537 154.128C694.752 153.778 694.832 153.411 694.779 153.027C694.724 152.641 694.542 152.293 694.232 151.984C693.92 151.672 693.592 151.495 693.249 151.452C692.905 151.41 692.615 151.507 692.377 151.745C692.203 151.919 692.115 152.111 692.113 152.321C692.109 152.529 692.19 152.791 692.358 153.107L693.08 154.478C693.511 155.299 693.45 155.985 692.899 156.536C692.64 156.795 692.352 156.958 692.033 157.026C691.711 157.094 691.383 157.068 691.05 156.947C690.713 156.826 690.394 156.613 690.093 156.307C689.8 156.01 689.592 155.692 689.469 155.353C689.344 155.015 689.306 154.672 689.355 154.322C689.401 153.97 689.537 153.628 689.762 153.297L690.44 153.765C690.289 153.975 690.197 154.199 690.163 154.436C690.127 154.672 690.149 154.904 690.23 155.133C690.308 155.364 690.443 155.578 690.634 155.773C690.812 155.955 691.004 156.088 691.209 156.17C691.413 156.251 691.611 156.278 691.804 156.25C691.997 156.222 692.165 156.138 692.307 155.995C692.462 155.841 692.536 155.652 692.53 155.429C692.519 155.206 692.428 154.933 692.256 154.608L691.652 153.495C691.387 153.005 691.266 152.581 691.289 152.222C691.31 151.866 691.479 151.53 691.795 151.214C692.068 150.94 692.376 150.768 692.717 150.698C693.057 150.626 693.407 150.656 693.767 150.787C694.126 150.917 694.468 151.145 694.795 151.471ZM691.145 147.822C691.381 148.057 691.552 148.325 691.658 148.627C691.762 148.926 691.801 149.232 691.775 149.546C691.746 149.86 691.65 150.159 691.489 150.443L690.799 150.046C690.911 149.857 690.974 149.658 690.986 149.451C690.997 149.245 690.968 149.047 690.9 148.856C690.828 148.665 690.721 148.498 690.579 148.356C690.392 148.17 690.18 148.046 689.943 147.987C689.701 147.928 689.462 147.929 689.227 147.99C688.989 148.054 688.782 148.175 688.603 148.353C688.419 148.538 688.298 148.75 688.241 148.989C688.179 149.229 688.18 149.468 688.244 149.705C688.307 149.943 688.428 150.151 688.607 150.329C688.808 150.53 689.023 150.661 689.252 150.72C689.477 150.779 689.691 150.79 689.895 150.752L690.207 151.445L687.671 153.701L685.212 151.242L685.75 150.704L687.935 152.89L687.448 152.874L689.485 151.073L689.446 151.36C689.183 151.368 688.927 151.321 688.677 151.22C688.424 151.116 688.206 150.971 688.021 150.787C687.737 150.503 687.549 150.181 687.458 149.823C687.365 149.467 687.367 149.108 687.464 148.747C687.56 148.389 687.75 148.068 688.034 147.783C688.316 147.501 688.646 147.316 689.023 147.227C689.399 147.14 689.776 147.146 690.156 147.246C690.531 147.345 690.861 147.537 691.145 147.822ZM689.491 144.932L689.191 145.161C689.109 145.066 689.025 145.016 688.94 145.012C688.855 145.008 688.772 145.034 688.689 145.091C688.606 145.149 688.527 145.224 688.45 145.317L688.778 145.645L688.059 146.364L687.435 145.74L688.25 144.926C688.472 144.703 688.695 144.591 688.918 144.589C689.138 144.584 689.329 144.699 689.491 144.932ZM680.771 146.986C680.478 146.693 680.284 146.359 680.189 145.983C680.093 145.608 680.098 145.23 680.202 144.851C680.303 144.469 680.508 144.124 680.816 143.817L682.34 142.293C682.66 141.973 683.012 141.758 683.396 141.65C683.78 141.542 684.164 141.54 684.548 141.644C684.929 141.746 685.277 141.953 685.591 142.267C685.841 142.518 686.024 142.804 686.138 143.126C686.251 143.447 686.287 143.778 686.247 144.119L685.448 144.071C685.486 143.846 685.472 143.621 685.407 143.394C685.339 143.169 685.221 142.973 685.053 142.805C684.85 142.601 684.622 142.471 684.369 142.414C684.115 142.354 683.866 142.36 683.622 142.43C683.376 142.497 683.161 142.623 682.979 142.805L682.06 143.725L682.076 143.46C682.398 143.401 682.719 143.417 683.04 143.508C683.36 143.599 683.641 143.766 683.883 144.008C684.167 144.292 684.355 144.613 684.446 144.972C684.537 145.33 684.535 145.689 684.439 146.047C684.342 146.408 684.151 146.73 683.867 147.014C683.583 147.298 683.254 147.485 682.88 147.574C682.505 147.665 682.132 147.661 681.761 147.561C681.385 147.462 681.055 147.27 680.771 146.986ZM681.318 146.438C681.501 146.621 681.712 146.743 681.951 146.804C682.187 146.866 682.424 146.866 682.664 146.804C682.902 146.745 683.112 146.624 683.294 146.442C683.476 146.259 683.599 146.049 683.663 145.812C683.722 145.574 683.722 145.336 683.663 145.099C683.602 144.859 683.48 144.648 683.297 144.466C683.115 144.283 682.904 144.161 682.664 144.1C682.424 144.038 682.187 144.038 681.951 144.1C681.712 144.161 681.501 144.283 681.318 144.466C681.138 144.646 681.018 144.855 680.959 145.093C680.895 145.33 680.894 145.569 680.956 145.808C681.015 146.046 681.136 146.256 681.318 146.438ZM681.012 137.879L680.169 138.723L682.275 140.829L681.738 141.366L677.026 143.056L676.383 142.413L681.095 140.724L679.632 139.26L678.343 140.549L677.77 139.976L679.059 138.688L678.582 138.21L679.119 137.673L679.597 138.15L680.44 137.307L681.012 137.879ZM677.75 134.426C678.047 134.723 678.245 135.055 678.345 135.422C678.44 135.789 678.44 136.156 678.345 136.523C678.245 136.89 678.047 137.222 677.75 137.519L676.07 139.198C675.773 139.495 675.441 139.694 675.074 139.793C674.705 139.891 674.338 139.891 673.973 139.793C673.607 139.694 673.275 139.495 672.978 139.198C672.681 138.902 672.482 138.57 672.383 138.203C672.283 137.836 672.283 137.469 672.383 137.102C672.482 136.735 672.681 136.403 672.978 136.106L674.658 134.426C674.954 134.129 675.286 133.931 675.653 133.831C676.018 133.734 676.385 133.734 676.754 133.831C677.121 133.931 677.453 134.129 677.75 134.426ZM677.206 134.97C677.026 134.79 676.819 134.67 676.586 134.611C676.352 134.551 676.119 134.551 675.886 134.611C675.65 134.672 675.443 134.792 675.265 134.97L673.519 136.717C673.338 136.897 673.218 137.104 673.159 137.337C673.1 137.571 673.1 137.804 673.159 138.037C673.218 138.271 673.338 138.477 673.519 138.658C673.697 138.836 673.903 138.956 674.139 139.017C674.372 139.077 674.606 139.077 674.839 139.017C675.072 138.958 675.279 138.838 675.459 138.658L677.206 136.911C677.384 136.733 677.504 136.526 677.565 136.291C677.625 136.057 677.625 135.824 677.565 135.591C677.504 135.355 677.384 135.148 677.206 134.97Z" fill="white"/>
</g>
<rect x="661.928" y="306.011" width="171.875" height="348.7" rx="16.6476" transform="rotate(-135 661.928 306.011)" stroke="#0090B9" stroke-width="2.69962"/>
<g clip-path="url(#clip2_0_1)">
<rect x="267.48" y="491.999" width="174.575" height="351.4" rx="17.9974" transform="rotate(-45 267.48 491.999)" fill="white"/>
<path d="M378.035 581.56L351.189 514.563C348.517 507.896 356.185 501.857 362.04 506.016L455.654 572.513C460.664 576.072 467.542 572.121 466.993 566L464.185 534.737C463.861 531.13 466.267 527.844 469.804 527.063L488.088 523.029C492.786 521.992 495.165 516.726 492.836 512.515L467.595 466.866" stroke="#0090B9" stroke-width="2.24968"/>
<rect x="319.657" y="462.729" width="59.3915" height="20.6971" rx="10.3485" transform="rotate(-45 319.657 462.729)" stroke="#122F89" stroke-width="1.79974"/>
<circle cx="336.201" cy="461.138" r="3.37452" transform="rotate(-45 336.201 461.138)" fill="#122F89"/>
<rect x="391.241" y="535.586" width="66.8947" height="25.1964" rx="4.49936" transform="rotate(-45 391.241 535.586)" fill="#122F89"/>
<path d="M424.136 525.729L423.401 524.994L423.968 524.427L424.703 525.162L424.136 525.729ZM419.03 520.622L418.292 519.884L418.858 519.318L419.596 520.056L419.03 520.622ZM423.93 524.866C423.62 525.176 423.286 525.4 422.927 525.538C422.569 525.671 422.208 525.716 421.846 525.671C421.481 525.625 421.135 525.487 420.809 525.258L421.273 524.609C421.623 524.823 421.99 524.903 422.374 524.85C422.76 524.795 423.108 524.613 423.417 524.303C423.729 523.991 423.906 523.664 423.949 523.32C423.991 522.976 423.894 522.686 423.656 522.448C423.482 522.274 423.29 522.186 423.08 522.184C422.872 522.18 422.61 522.262 422.294 522.429L420.923 523.151C420.102 523.582 419.416 523.522 418.865 522.97C418.606 522.711 418.443 522.423 418.375 522.105C418.307 521.782 418.333 521.455 418.454 521.122C418.575 520.784 418.788 520.465 419.094 520.164C419.391 519.871 419.709 519.663 420.048 519.54C420.385 519.415 420.729 519.377 421.079 519.426C421.431 519.473 421.773 519.608 422.103 519.833L421.636 520.511C421.426 520.36 421.202 520.268 420.964 520.234C420.729 520.198 420.497 520.22 420.268 520.301C420.036 520.379 419.823 520.514 419.628 520.705C419.446 520.883 419.313 521.075 419.23 521.281C419.15 521.484 419.123 521.683 419.151 521.876C419.179 522.069 419.263 522.236 419.405 522.378C419.56 522.533 419.749 522.607 419.972 522.601C420.194 522.59 420.468 522.499 420.793 522.327L421.906 521.723C422.396 521.458 422.82 521.337 423.179 521.36C423.535 521.381 423.871 521.55 424.187 521.866C424.461 522.14 424.633 522.447 424.703 522.789C424.775 523.128 424.745 523.478 424.614 523.839C424.484 524.197 424.256 524.54 423.93 524.866ZM427.579 521.217C427.344 521.452 427.075 521.623 426.774 521.729C426.475 521.833 426.169 521.872 425.855 521.847C425.541 521.817 425.242 521.722 424.958 521.56L425.355 520.87C425.544 520.982 425.742 521.045 425.95 521.058C426.156 521.068 426.354 521.04 426.545 520.972C426.736 520.9 426.903 520.793 427.045 520.65C427.231 520.464 427.354 520.252 427.414 520.014C427.473 519.772 427.472 519.534 427.411 519.298C427.347 519.061 427.226 518.853 427.048 518.675C426.863 518.49 426.651 518.369 426.412 518.312C426.172 518.25 425.933 518.252 425.696 518.315C425.458 518.379 425.25 518.5 425.072 518.678C424.871 518.879 424.74 519.095 424.681 519.324C424.621 519.549 424.611 519.763 424.649 519.966L423.955 520.278L421.7 517.742L424.159 515.283L424.697 515.821L422.511 518.007L422.527 517.52L424.328 519.556L424.041 519.518C424.033 519.255 424.08 518.998 424.181 518.748C424.285 518.495 424.43 518.277 424.614 518.092C424.898 517.808 425.22 517.621 425.578 517.529C425.934 517.436 426.293 517.438 426.653 517.536C427.012 517.631 427.333 517.821 427.617 518.105C427.899 518.387 428.085 518.717 428.174 519.095C428.261 519.47 428.255 519.848 428.155 520.227C428.055 520.603 427.863 520.932 427.579 521.217ZM430.469 519.562L430.239 519.263C430.335 519.18 430.385 519.096 430.389 519.011C430.393 518.927 430.367 518.843 430.309 518.76C430.252 518.677 430.177 518.598 430.084 518.521L429.756 518.849L429.037 518.13L429.66 517.507L430.475 518.321C430.698 518.544 430.81 518.766 430.812 518.989C430.816 519.21 430.702 519.401 430.469 519.562ZM428.415 510.842C428.708 510.55 429.042 510.356 429.417 510.26C429.793 510.165 430.17 510.169 430.55 510.273C430.932 510.375 431.277 510.579 431.584 510.887L433.108 512.411C433.428 512.731 433.643 513.083 433.751 513.467C433.859 513.851 433.861 514.235 433.757 514.619C433.655 515.001 433.447 515.348 433.134 515.662C432.883 515.913 432.597 516.095 432.275 516.21C431.954 516.322 431.623 516.358 431.282 516.318L431.33 515.519C431.554 515.557 431.78 515.544 432.007 515.478C432.232 515.41 432.428 515.292 432.596 515.125C432.799 514.921 432.93 514.693 432.987 514.441C433.047 514.186 433.041 513.937 432.971 513.693C432.903 513.447 432.778 513.233 432.596 513.05L431.676 512.131L431.94 512.147C432 512.469 431.984 512.791 431.893 513.111C431.802 513.431 431.635 513.712 431.393 513.954C431.109 514.238 430.788 514.426 430.429 514.517C430.071 514.608 429.712 514.606 429.354 514.511C428.993 514.413 428.671 514.222 428.387 513.938C428.102 513.654 427.916 513.325 427.827 512.952C427.736 512.576 427.74 512.203 427.839 511.832C427.939 511.456 428.131 511.127 428.415 510.842ZM428.963 511.39C428.78 511.572 428.658 511.783 428.597 512.023C428.535 512.258 428.535 512.496 428.597 512.735C428.656 512.973 428.777 513.183 428.959 513.365C429.142 513.548 429.352 513.671 429.589 513.734C429.827 513.794 430.064 513.794 430.302 513.734C430.542 513.673 430.753 513.551 430.935 513.369C431.117 513.186 431.239 512.975 431.301 512.735C431.362 512.496 431.362 512.258 431.301 512.023C431.239 511.783 431.117 511.572 430.935 511.39C430.755 511.209 430.546 511.089 430.308 511.03C430.071 510.966 429.832 510.965 429.592 511.027C429.355 511.086 429.145 511.207 428.963 511.39ZM437.521 511.084L436.678 510.24L434.572 512.347L434.034 511.809L432.345 507.097L432.988 506.454L434.677 511.166L436.141 509.703L434.852 508.414L435.425 507.842L436.713 509.13L437.191 508.653L437.728 509.191L437.251 509.668L438.094 510.511L437.521 511.084ZM440.975 507.821C440.678 508.118 440.346 508.316 439.979 508.416C439.612 508.512 439.245 508.512 438.878 508.416C438.511 508.316 438.179 508.118 437.882 507.821L436.202 506.141C435.905 505.844 435.707 505.513 435.607 505.146C435.51 504.777 435.51 504.41 435.607 504.045C435.707 503.678 435.905 503.346 436.202 503.049C436.499 502.752 436.831 502.554 437.198 502.454C437.565 502.354 437.932 502.354 438.299 502.454C438.666 502.554 438.998 502.752 439.295 503.049L440.975 504.729C441.272 505.026 441.47 505.358 441.57 505.725C441.667 506.089 441.667 506.456 441.57 506.825C441.47 507.192 441.272 507.524 440.975 507.821ZM440.431 507.277C440.611 507.097 440.731 506.89 440.79 506.657C440.85 506.423 440.85 506.19 440.79 505.957C440.729 505.721 440.609 505.515 440.431 505.336L438.684 503.59C438.504 503.41 438.297 503.29 438.064 503.23C437.83 503.171 437.597 503.171 437.364 503.23C437.13 503.29 436.924 503.41 436.743 503.59C436.565 503.768 436.445 503.975 436.384 504.21C436.324 504.444 436.324 504.677 436.384 504.91C436.443 505.143 436.563 505.35 436.743 505.531L438.49 507.277C438.668 507.455 438.875 507.575 439.11 507.637C439.344 507.696 439.577 507.696 439.81 507.637C440.046 507.575 440.252 507.455 440.431 507.277Z" fill="white"/>
</g>
<rect x="269.389" y="491.999" width="171.875" height="348.7" rx="16.6476" transform="rotate(-45 269.389 491.999)" stroke="#0090B9" stroke-width="2.69962"/>
<g clip-path="url(#clip3_0_1)">
<rect x="248.477" y="220.373" width="174.575" height="351.4" rx="17.9974" transform="rotate(45 248.477 220.373)" fill="white"/>
<path d="M158.915 330.93L225.912 304.084C232.579 301.412 238.618 309.08 234.459 314.935L167.963 408.549C164.404 413.559 168.355 420.438 174.476 419.888L205.738 417.08C209.345 416.756 212.631 419.162 213.412 422.699L217.446 440.983C218.483 445.682 223.749 448.06 227.96 445.732L273.609 420.49" stroke="#0090B9" stroke-width="2.24968"/>
<rect x="277.744" y="272.549" width="59.3915" height="20.697" rx="10.3485" transform="rotate(45 277.744 272.549)" stroke="#122F89" stroke-width="1.79974"/>
<circle cx="279.336" cy="289.093" r="3.37452" transform="rotate(45 279.336 289.093)" fill="#122F89"/>
<rect x="204.889" y="344.134" width="66.8947" height="25.1964" rx="4.49936" transform="rotate(45 204.889 344.134)" fill="#122F89"/>
<rect x="207.435" y="354.314" width="14.3979" height="14.3979" rx="2.24968" transform="rotate(45 207.435 354.314)" fill="white"/>
<mask id="mask2_0_1" style="mask-type:alpha" maskUnits="userSpaceOnUse" x="199" y="356" width="17" height="17">
<rect x="207.435" y="356.86" width="10.7985" height="10.7985" transform="rotate(45 207.435 356.86)" fill="#D9D9D9"/>
</mask>
<g mask="url(#mask2_0_1)">
<path d="M206.497 365.433C206.454 365.391 206.421 365.344 206.397 365.294C206.373 365.244 206.361 365.187 206.361 365.123L206.361 362.18C206.361 362.064 206.407 361.963 206.497 361.878C206.587 361.793 206.69 361.751 206.807 361.751C206.923 361.751 207.027 361.796 207.117 361.886C207.207 361.976 207.252 362.079 207.252 362.196L207.252 364.678L209.75 364.678C209.866 364.678 209.967 364.723 210.052 364.813C210.137 364.903 210.179 365.006 210.179 365.123C210.179 365.24 210.134 365.343 210.044 365.433C209.954 365.523 209.85 365.568 209.734 365.568L206.807 365.568C206.743 365.568 206.686 365.557 206.636 365.533C206.586 365.509 206.539 365.476 206.497 365.433Z" fill="#122F89"/>
</g>
<path d="M214.747 377.029L215.482 376.294L216.048 376.86L215.313 377.595L214.747 377.029ZM219.853 371.923L220.592 371.185L221.158 371.751L220.42 372.489L219.853 371.923ZM215.609 376.822C215.3 376.513 215.076 376.178 214.938 375.82C214.804 375.462 214.76 375.101 214.804 374.738C214.851 374.373 214.989 374.028 215.218 373.701L215.867 374.166C215.653 374.516 215.572 374.883 215.625 375.266C215.68 375.652 215.863 376 216.172 376.31C216.484 376.622 216.812 376.799 217.155 376.841C217.499 376.884 217.79 376.786 218.027 376.549C218.201 376.375 218.289 376.183 218.291 375.973C218.296 375.765 218.214 375.503 218.046 375.187L217.324 373.816C216.894 372.995 216.954 372.309 217.505 371.757C217.764 371.498 218.053 371.335 218.371 371.267C218.693 371.199 219.021 371.226 219.354 371.347C219.691 371.468 220.01 371.681 220.312 371.986C220.604 372.283 220.812 372.601 220.935 372.941C221.06 373.278 221.098 373.622 221.05 373.972C221.003 374.324 220.867 374.665 220.642 374.996L219.965 374.528C220.115 374.318 220.208 374.095 220.242 373.857C220.278 373.622 220.255 373.389 220.175 373.16C220.096 372.929 219.962 372.716 219.771 372.521C219.593 372.338 219.401 372.206 219.195 372.123C218.991 372.042 218.793 372.016 218.6 372.044C218.407 372.071 218.239 372.156 218.097 372.298C217.942 372.453 217.868 372.642 217.875 372.864C217.885 373.087 217.976 373.361 218.148 373.685L218.753 374.799C219.018 375.289 219.139 375.713 219.115 376.071C219.094 376.428 218.925 376.764 218.609 377.08C218.336 377.353 218.028 377.525 217.687 377.595C217.347 377.667 216.997 377.638 216.637 377.506C216.278 377.377 215.936 377.149 215.609 376.822ZM219.259 380.472C219.023 380.236 218.853 379.968 218.747 379.667C218.643 379.368 218.603 379.061 218.629 378.747C218.659 378.433 218.754 378.134 218.915 377.85L219.606 378.248C219.493 378.437 219.431 378.635 219.418 378.843C219.407 379.049 219.436 379.247 219.504 379.438C219.576 379.629 219.683 379.795 219.825 379.937C220.012 380.124 220.224 380.247 220.461 380.306C220.703 380.366 220.942 380.365 221.177 380.303C221.415 380.24 221.623 380.119 221.801 379.94C221.985 379.756 222.106 379.544 222.164 379.304C222.225 379.064 222.224 378.826 222.16 378.588C222.097 378.351 221.976 378.143 221.798 377.965C221.596 377.763 221.381 377.633 221.152 377.573C220.927 377.514 220.713 377.503 220.509 377.542L220.197 376.848L222.733 374.592L225.192 377.052L224.655 377.589L222.469 375.404L222.956 375.42L220.92 377.22L220.958 376.934C221.221 376.925 221.477 376.972 221.728 377.074C221.98 377.178 222.199 377.322 222.383 377.507C222.667 377.791 222.855 378.112 222.946 378.471C223.04 378.827 223.037 379.185 222.94 379.546C222.844 379.904 222.655 380.226 222.37 380.51C222.088 380.792 221.759 380.978 221.381 381.067C221.006 381.154 220.628 381.147 220.248 381.048C219.873 380.948 219.543 380.756 219.259 380.472ZM220.914 383.361L221.213 383.132C221.296 383.227 221.379 383.277 221.464 383.282C221.549 383.286 221.633 383.259 221.716 383.202C221.798 383.145 221.878 383.069 221.954 382.976L221.626 382.648L222.345 381.929L222.969 382.553L222.155 383.367C221.932 383.59 221.709 383.703 221.486 383.705C221.266 383.709 221.075 383.594 220.914 383.361ZM229.633 381.308C229.926 381.601 230.12 381.935 230.215 382.31C230.311 382.685 230.307 383.063 230.203 383.443C230.101 383.824 229.896 384.169 229.589 384.477L228.065 386.001C227.744 386.321 227.392 386.535 227.008 386.643C226.625 386.751 226.241 386.754 225.857 386.65C225.475 386.548 225.127 386.34 224.813 386.026C224.563 385.776 224.38 385.489 224.266 385.167C224.154 384.847 224.117 384.516 224.158 384.174L224.956 384.222C224.918 384.447 224.932 384.673 224.998 384.9C225.066 385.125 225.183 385.321 225.351 385.488C225.554 385.692 225.782 385.822 226.035 385.88C226.289 385.939 226.539 385.934 226.783 385.864C227.029 385.796 227.243 385.671 227.425 385.488L228.345 384.569L228.329 384.833C228.006 384.892 227.685 384.876 227.365 384.785C227.044 384.694 226.763 384.528 226.522 384.286C226.237 384.002 226.05 383.68 225.959 383.322C225.867 382.963 225.869 382.605 225.965 382.246C226.062 381.886 226.253 381.563 226.538 381.279C226.822 380.995 227.151 380.808 227.524 380.719C227.899 380.628 228.273 380.632 228.644 380.732C229.019 380.832 229.349 381.024 229.633 381.308ZM229.086 381.855C228.904 381.673 228.693 381.551 228.453 381.489C228.217 381.428 227.98 381.428 227.74 381.489C227.503 381.549 227.293 381.67 227.11 381.852C226.928 382.034 226.805 382.244 226.741 382.482C226.682 382.719 226.682 382.957 226.741 383.195C226.803 383.434 226.925 383.645 227.107 383.828C227.289 384.01 227.501 384.132 227.74 384.194C227.98 384.255 228.217 384.255 228.453 384.194C228.693 384.132 228.904 384.01 229.086 383.828C229.266 383.647 229.386 383.438 229.445 383.201C229.509 382.963 229.51 382.725 229.449 382.485C229.389 382.247 229.268 382.038 229.086 381.855ZM229.392 390.414L230.235 389.571L228.129 387.465L228.667 386.927L233.378 385.238L234.021 385.88L229.309 387.57L230.773 389.033L232.061 387.745L232.634 388.317L231.345 389.606L231.823 390.083L231.285 390.621L230.808 390.144L229.965 390.987L229.392 390.414ZM232.654 393.867C232.357 393.57 232.159 393.238 232.059 392.871C231.964 392.505 231.964 392.138 232.059 391.771C232.159 391.404 232.357 391.072 232.654 390.775L234.334 389.095C234.631 388.798 234.963 388.6 235.33 388.5C235.699 388.402 236.066 388.402 236.431 388.5C236.798 388.6 237.13 388.798 237.427 389.095C237.724 389.392 237.922 389.724 238.022 390.091C238.121 390.458 238.121 390.825 238.022 391.192C237.922 391.559 237.724 391.89 237.427 392.187L235.747 393.867C235.45 394.164 235.118 394.363 234.751 394.462C234.386 394.56 234.019 394.56 233.65 394.462C233.283 394.363 232.951 394.164 232.654 393.867ZM233.198 393.323C233.379 393.504 233.585 393.623 233.819 393.683C234.052 393.742 234.285 393.742 234.519 393.683C234.754 393.621 234.961 393.501 235.139 393.323L236.886 391.577C237.066 391.396 237.186 391.189 237.245 390.956C237.305 390.723 237.305 390.49 237.245 390.256C237.186 390.023 237.066 389.816 236.886 389.636C236.708 389.458 236.501 389.338 236.265 389.276C236.032 389.217 235.799 389.217 235.565 389.276C235.332 389.336 235.125 389.456 234.945 389.636L233.198 391.382C233.02 391.561 232.9 391.767 232.839 392.003C232.779 392.236 232.779 392.47 232.839 392.703C232.9 392.938 233.02 393.145 233.198 393.323Z" fill="white"/>
</g>
<rect x="248.477" y="222.282" width="171.875" height="348.7" rx="16.6476" transform="rotate(45 248.477 222.282)" stroke="#0090B9" stroke-width="2.69962"/>
<g clip-path="url(#clip4_0_1)">
<rect x="785.477" y="227" width="174.575" height="351.4" rx="17.9974" transform="rotate(45 785.477 227)" fill="white"/>
<path d="M695.915 337.557L762.912 310.711C769.579 308.04 775.618 315.707 771.459 321.562L704.963 415.176C701.404 420.186 705.355 427.065 711.476 426.515L742.738 423.707C746.345 423.383 749.631 425.789 750.412 429.326L754.446 447.61C755.483 452.309 760.749 454.687 764.96 452.359L810.609 427.117" stroke="#0090B9" stroke-width="2.24968"/>
<rect x="741.889" y="350.761" width="66.8947" height="25.1964" rx="4.49936" transform="rotate(45 741.889 350.761)" fill="#122F89"/>
<rect x="744.435" y="360.942" width="14.3979" height="14.3979" rx="2.24968" transform="rotate(45 744.435 360.942)" fill="white"/>
<mask id="mask3_0_1" style="mask-type:alpha" maskUnits="userSpaceOnUse" x="736" y="363" width="17" height="16">
<rect x="744.435" y="363.487" width="10.7985" height="10.7985" transform="rotate(45 744.435 363.487)" fill="#D9D9D9"/>
</mask>
<g mask="url(#mask3_0_1)">
<path d="M743.497 372.06C743.454 372.018 743.421 371.972 743.397 371.921C743.373 371.871 743.361 371.814 743.361 371.75L743.361 368.807C743.361 368.691 743.407 368.59 743.497 368.505C743.587 368.42 743.69 368.378 743.807 368.378C743.923 368.378 744.027 368.423 744.117 368.513C744.207 368.603 744.252 368.707 744.252 368.823L744.252 371.305L746.75 371.305C746.866 371.305 746.967 371.35 747.052 371.44C747.137 371.53 747.179 371.634 747.179 371.75C747.179 371.867 747.134 371.97 747.044 372.06C746.954 372.151 746.85 372.196 746.734 372.196L743.807 372.196C743.743 372.196 743.686 372.184 743.636 372.16C743.586 372.136 743.539 372.103 743.497 372.06Z" fill="#122F89"/>
</g>
<path d="M751.747 383.656L752.482 382.921L753.048 383.488L752.313 384.222L751.747 383.656ZM756.853 378.55L757.592 377.812L758.158 378.378L757.42 379.116L756.853 378.55ZM752.609 383.449C752.3 383.14 752.076 382.806 751.938 382.447C751.804 382.089 751.76 381.728 751.804 381.365C751.851 381.001 751.989 380.655 752.218 380.328L752.867 380.793C752.653 381.143 752.572 381.51 752.625 381.894C752.68 382.28 752.863 382.627 753.172 382.937C753.484 383.249 753.812 383.426 754.155 383.468C754.499 383.511 754.79 383.413 755.027 383.176C755.201 383.002 755.289 382.81 755.291 382.6C755.296 382.392 755.214 382.13 755.046 381.814L754.324 380.443C753.894 379.622 753.954 378.936 754.505 378.384C754.764 378.126 755.053 377.962 755.371 377.894C755.693 377.827 756.021 377.853 756.354 377.974C756.691 378.095 757.01 378.308 757.312 378.613C757.604 378.91 757.812 379.229 757.935 379.568C758.06 379.905 758.098 380.249 758.05 380.599C758.003 380.951 757.867 381.292 757.642 381.623L756.965 381.155C757.115 380.946 757.208 380.722 757.242 380.484C757.278 380.249 757.255 380.017 757.175 379.787C757.096 379.556 756.962 379.343 756.771 379.148C756.593 378.966 756.401 378.833 756.195 378.75C755.991 378.67 755.793 378.643 755.6 378.671C755.407 378.698 755.239 378.783 755.097 378.925C754.942 379.08 754.868 379.269 754.875 379.492C754.885 379.714 754.976 379.988 755.148 380.312L755.753 381.426C756.018 381.916 756.139 382.34 756.115 382.699C756.094 383.055 755.925 383.391 755.609 383.707C755.336 383.981 755.028 384.152 754.687 384.222C754.347 384.295 753.997 384.265 753.637 384.133C753.278 384.004 752.936 383.776 752.609 383.449ZM756.259 387.099C756.023 386.864 755.853 386.595 755.747 386.294C755.643 385.995 755.603 385.689 755.629 385.375C755.659 385.061 755.754 384.762 755.915 384.477L756.606 384.875C756.493 385.064 756.431 385.262 756.418 385.47C756.407 385.676 756.436 385.874 756.504 386.065C756.576 386.256 756.683 386.422 756.825 386.564C757.012 386.751 757.224 386.874 757.461 386.934C757.703 386.993 757.942 386.992 758.177 386.93C758.415 386.867 758.623 386.746 758.801 386.568C758.985 386.383 759.106 386.171 759.164 385.931C759.225 385.692 759.224 385.453 759.16 385.216C759.097 384.978 758.976 384.77 758.798 384.592C758.596 384.39 758.381 384.26 758.152 384.201C757.927 384.141 757.713 384.131 757.509 384.169L757.197 383.475L759.733 381.22L762.192 383.679L761.655 384.217L759.469 382.031L759.956 382.047L757.92 383.847L757.958 383.561C758.221 383.553 758.477 383.599 758.728 383.701C758.98 383.805 759.199 383.949 759.383 384.134C759.667 384.418 759.855 384.739 759.946 385.098C760.04 385.454 760.037 385.813 759.94 386.173C759.844 386.532 759.655 386.853 759.37 387.137C759.088 387.419 758.759 387.605 758.381 387.694C758.006 387.781 757.628 387.775 757.248 387.675C756.873 387.575 756.543 387.383 756.259 387.099ZM757.914 389.988L758.213 389.759C758.296 389.855 758.379 389.905 758.464 389.909C758.549 389.913 758.633 389.887 758.716 389.829C758.798 389.772 758.878 389.697 758.954 389.603L758.626 389.276L759.345 388.557L759.969 389.18L759.155 389.995C758.932 390.217 758.709 390.33 758.486 390.332C758.266 390.336 758.075 390.222 757.914 389.988ZM766.633 387.935C766.926 388.228 767.12 388.562 767.215 388.937C767.311 389.313 767.307 389.69 767.203 390.07C767.101 390.452 766.896 390.796 766.589 391.104L765.065 392.628C764.744 392.948 764.392 393.162 764.008 393.271C763.625 393.379 763.241 393.381 762.857 393.277C762.475 393.175 762.127 392.967 761.813 392.653C761.563 392.403 761.38 392.117 761.266 391.794C761.154 391.474 761.117 391.143 761.158 390.802L761.956 390.849C761.918 391.074 761.932 391.3 761.998 391.527C762.066 391.752 762.183 391.948 762.351 392.116C762.554 392.319 762.782 392.45 763.035 392.507C763.289 392.566 763.539 392.561 763.783 392.491C764.029 392.423 764.243 392.298 764.425 392.116L765.345 391.196L765.329 391.46C765.006 391.52 764.685 391.504 764.365 391.412C764.044 391.321 763.763 391.155 763.522 390.913C763.237 390.629 763.05 390.307 762.959 389.949C762.867 389.591 762.869 389.232 762.965 388.874C763.062 388.513 763.253 388.191 763.538 387.906C763.822 387.622 764.151 387.436 764.524 387.347C764.899 387.255 765.273 387.26 765.644 387.359C766.019 387.459 766.349 387.651 766.633 387.935ZM766.086 388.482C765.904 388.3 765.693 388.178 765.453 388.116C765.217 388.055 764.98 388.055 764.74 388.116C764.503 388.176 764.293 388.297 764.11 388.479C763.928 388.662 763.805 388.872 763.741 389.109C763.682 389.347 763.682 389.584 763.741 389.822C763.803 390.061 763.925 390.272 764.107 390.455C764.289 390.637 764.501 390.759 764.74 390.821C764.98 390.882 765.217 390.882 765.453 390.821C765.693 390.759 765.904 390.637 766.086 390.455C766.266 390.275 766.386 390.066 766.445 389.828C766.509 389.591 766.51 389.352 766.449 389.112C766.389 388.875 766.268 388.665 766.086 388.482ZM766.392 397.041L767.235 396.198L765.129 394.092L765.667 393.554L770.378 391.865L771.021 392.508L766.309 394.197L767.773 395.66L769.061 394.372L769.634 394.945L768.345 396.233L768.823 396.71L768.285 397.248L767.808 396.771L766.965 397.614L766.392 397.041ZM769.654 400.494C769.357 400.198 769.159 399.866 769.059 399.499C768.964 399.132 768.964 398.765 769.059 398.398C769.159 398.031 769.357 397.699 769.654 397.402L771.334 395.722C771.631 395.425 771.963 395.227 772.33 395.127C772.699 395.03 773.066 395.03 773.431 395.127C773.798 395.227 774.13 395.425 774.427 395.722C774.724 396.019 774.922 396.351 775.022 396.718C775.121 397.085 775.121 397.452 775.022 397.819C774.922 398.186 774.724 398.518 774.427 398.815L772.747 400.494C772.45 400.791 772.118 400.99 771.751 401.089C771.386 401.187 771.019 401.187 770.65 401.089C770.283 400.99 769.951 400.791 769.654 400.494ZM770.198 399.95C770.379 400.131 770.585 400.251 770.819 400.31C771.052 400.369 771.285 400.369 771.519 400.31C771.754 400.248 771.961 400.129 772.139 399.95L773.886 398.204C774.066 398.023 774.186 397.817 774.245 397.583C774.305 397.35 774.305 397.117 774.245 396.883C774.186 396.65 774.066 396.443 773.886 396.263C773.708 396.085 773.501 395.965 773.265 395.904C773.032 395.844 772.799 395.844 772.565 395.904C772.332 395.963 772.125 396.083 771.945 396.263L770.198 398.01C770.02 398.188 769.9 398.395 769.839 398.63C769.779 398.863 769.779 399.097 769.839 399.33C769.9 399.565 770.02 399.772 770.198 399.95Z" fill="white"/>
</g>
<rect x="785.477" y="228.909" width="171.875" height="348.7" rx="16.6476" transform="rotate(45 785.477 228.909)" stroke="#0090B9" stroke-width="2.69962"/>
<defs>
<clipPath id="clip0_0_1">
<rect x="267.4" y="206.001" width="174.575" height="351.4" rx="17.9974" transform="rotate(-45 267.4 206.001)" fill="white"/>
</clipPath>
<clipPath id="clip1_0_1">
<rect x="661.928" y="307.92" width="174.575" height="351.4" rx="17.9974" transform="rotate(-135 661.928 307.92)" fill="white"/>
</clipPath>
<clipPath id="clip2_0_1">
<rect x="267.48" y="491.999" width="174.575" height="351.4" rx="17.9974" transform="rotate(-45 267.48 491.999)" fill="white"/>
</clipPath>
<clipPath id="clip3_0_1">
<rect x="248.477" y="220.373" width="174.575" height="351.4" rx="17.9974" transform="rotate(45 248.477 220.373)" fill="white"/>
</clipPath>
<clipPath id="clip4_0_1">
<rect x="785.477" y="227" width="174.575" height="351.4" rx="17.9974" transform="rotate(45 785.477 227)" fill="white"/>
</clipPath>
</defs>
</svg>
