<svg width="418" height="351" viewBox="0 0 418 351" fill="none" xmlns="http://www.w3.org/2000/svg">
<g clip-path="url(#clip0_609_279)">
<path d="M384.784 343.999L378.544 343.999L375.576 319.931H384.785L384.784 343.999Z" fill="#9E616A"/>
<path d="M386.375 350.048L366.255 350.047V349.793C366.256 347.716 367.081 345.724 368.549 344.256C370.018 342.787 372.01 341.962 374.087 341.962H374.087L386.376 341.962L386.375 350.048Z" fill="#2F2E41"/>
<path d="M360.863 343.999L354.623 343.999L351.654 319.931H360.864L360.863 343.999Z" fill="#9E616A"/>
<path d="M362.454 350.048L342.334 350.047V349.793C342.335 347.716 343.16 345.724 344.628 344.256C346.097 342.787 348.089 341.962 350.166 341.962H350.166L362.455 341.962L362.454 350.048Z" fill="#2F2E41"/>
<path d="M91.2817 349.117V155.806C91.2817 154.615 91.7547 153.474 92.5966 152.632C93.4384 151.79 94.5803 151.317 95.7708 151.317H115.804C116.994 151.317 118.136 151.79 118.978 152.632C119.82 153.474 120.293 154.615 120.293 155.806V155.806V349.621L91.2817 349.117Z" fill="#9ACFDE"/>
<path d="M157.448 349.723V196.014C157.448 194.824 157.921 193.682 158.763 192.84C159.604 191.998 160.746 191.525 161.937 191.525H181.97C183.16 191.525 184.302 191.998 185.144 192.84C185.986 193.682 186.459 194.824 186.459 196.014V196.014V349.392L157.448 349.723Z" fill="#9ACFDE"/>
<path d="M39.8751 167.105C39.5802 167.104 39.2917 167.019 39.0443 166.858C38.797 166.698 38.6014 166.469 38.4812 166.2C38.361 165.931 38.3214 165.632 38.3671 165.341C38.4128 165.05 38.5418 164.778 38.7387 164.558L105.722 89.8465L171.642 126.863L237.955 12.6014L305.509 68.2037C305.664 68.331 305.793 68.4877 305.887 68.6647C305.982 68.8417 306.04 69.0356 306.06 69.2353C306.079 69.435 306.059 69.6365 306.001 69.8284C305.942 70.0204 305.846 70.1989 305.719 70.3538C305.591 70.5087 305.435 70.6369 305.258 70.7312C305.08 70.8255 304.887 70.884 304.687 70.9033C304.487 70.9226 304.286 70.9023 304.094 70.8437C303.902 70.7851 303.723 70.6892 303.569 70.5616L238.791 17.2447L172.772 131L106.361 93.708L41.0124 166.597C40.8694 166.757 40.6941 166.885 40.4981 166.972C40.3021 167.06 40.0898 167.105 39.8751 167.105V167.105Z" fill="#9ACFDE"/>
<path d="M39.6217 179.829C47.4924 179.829 53.8728 173.448 53.8728 165.578C53.8728 157.707 47.4924 151.327 39.6217 151.327C31.751 151.327 25.3706 157.707 25.3706 165.578C25.3706 173.448 31.751 179.829 39.6217 179.829Z" fill="#122F89"/>
<path d="M118.705 91.7774C118.705 98.9116 112.922 104.695 105.788 104.695C98.6535 104.695 92.87 98.9116 92.87 91.7774C92.87 84.6431 98.6535 78.8596 105.788 78.8596C112.922 78.8596 118.705 84.6431 118.705 91.7774Z" fill="white" stroke="#122F89" stroke-width="2.6668"/>
<path d="M184.871 128.932C184.871 136.066 179.088 141.85 171.953 141.85C164.819 141.85 159.036 136.066 159.036 128.932C159.036 121.798 164.819 116.014 171.953 116.014C179.088 116.014 184.871 121.798 184.871 128.932Z" fill="white" stroke="#122F89" stroke-width="2.6668"/>
<path d="M238.119 29.1742C245.989 29.1742 252.37 22.7938 252.37 14.9231C252.37 7.05246 245.989 0.672028 238.119 0.672028C230.248 0.672028 223.868 7.05246 223.868 14.9231C223.868 22.7938 230.248 29.1742 238.119 29.1742Z" fill="#122F89"/>
<path d="M365.361 135.312C373.232 135.312 379.612 128.931 379.612 121.061C379.612 113.19 373.232 106.81 365.361 106.81C357.49 106.81 351.11 113.19 351.11 121.061C351.11 128.931 357.49 135.312 365.361 135.312Z" fill="#122F89"/>
<path d="M360.323 232.077C365.657 232.72 379.296 227.854 380.036 235.257C387.056 255.923 386.848 335.145 386.848 335.145L376.16 335.654C376.16 335.654 367.619 272.707 363.58 259.241C361.553 275.609 361.909 338.199 361.909 338.199L352.238 338.708C352.238 338.708 343.564 285.41 343.514 269.766C342.46 258.308 345.046 241.327 343.939 230.25C349.228 231.926 354.794 232.547 360.323 232.077L360.323 232.077Z" fill="#2D293D"/>
<path d="M289.779 349.038V126.235C289.779 123.378 291.789 121.061 294.268 121.061H314.301C316.78 121.061 318.79 123.377 318.79 126.235V349.621L289.779 349.038Z" fill="#9ACFDE"/>
<path d="M342.178 172.121C340.039 167.747 337.426 163.622 334.386 159.819C333.751 159.076 333.172 158.287 332.655 157.458C331.561 155.559 331.235 153.33 330.543 151.253C328.609 145.431 323.784 140.753 322.608 134.732C322.181 132.544 318.569 138.905 319.519 141.619C321.214 146.53 321.432 151.732 323.591 156.475C325.749 161.219 328.283 165.769 330.146 170.62C331.205 173.373 332.05 176.218 333.602 178.763C335.154 181.308 337.577 183.44 340.504 183.822C340.484 181.977 340.764 180.141 341.333 178.386C341.969 176.381 343.099 174.019 342.178 172.121Z" fill="#9E616A"/>
<path d="M374.197 175.419C374.066 171.82 374.628 168.23 375.851 164.843C376.32 163.545 376.869 162.227 376.823 160.847C376.757 159.565 376.146 158.389 375.592 157.229C373.678 153.233 372.334 148.999 371.011 144.774L368.466 136.809C367.636 136.2 372.482 135.989 373.515 137.42C376.895 142.112 379.455 147.502 382.132 152.627C382.815 153.849 383.397 155.124 383.873 156.44C384.526 158.572 384.836 160.796 384.789 163.026C384.789 167.194 384.239 171.347 383.669 175.48C383.308 178.071 382.834 180.89 380.875 182.606C378.839 180 376.793 177.455 374.197 175.419Z" fill="#9E616A"/>
<path d="M360.74 171.295C366.573 171.295 371.301 166.567 371.301 160.734C371.301 154.902 366.573 150.173 360.74 150.173C354.907 150.173 350.179 154.902 350.179 160.734C350.179 166.567 354.907 171.295 360.74 171.295Z" fill="#9E616A"/>
<path d="M352.154 150.198C352.036 149.877 352.009 149.53 352.078 149.195C352.146 148.86 352.306 148.551 352.541 148.303C352.805 148.095 353.155 148.017 353.438 147.819C353.84 147.481 354.169 147.065 354.405 146.596C355.126 145.586 356.182 144.865 357.384 144.559C358.587 144.254 359.859 144.385 360.975 144.928C362.72 145.842 363.774 147.671 365.326 148.902C366.114 149.541 367.028 150.014 367.821 150.652C369.409 152.024 370.538 153.85 371.055 155.883C371.57 157.903 371.87 159.972 371.952 162.054C372.034 162.679 372.01 163.314 371.879 163.931C371.719 164.448 371.479 164.937 371.169 165.381C369.574 167.798 367.471 169.993 364.836 171.241C362.201 172.488 358.995 172.691 356.397 171.386C356.135 171.28 355.91 171.1 355.749 170.868C355.601 170.515 355.566 170.126 355.648 169.752C355.789 168.274 355.496 166.788 354.806 165.473C354.323 164.507 353.598 163.675 353.211 162.674C352.851 161.554 352.697 160.378 352.756 159.203C352.71 156.159 352.917 153.128 352.154 150.198Z" fill="#2D293D"/>
<path d="M25.1157 349.341V241.775C25.1157 240.395 27.1256 239.277 29.6048 239.277H49.6378C52.117 239.277 54.1269 240.397 54.1269 241.775V349.621L25.1157 349.341Z" fill="#9ACFDE"/>
<path d="M417.447 350.741H0.516292C0.381306 350.741 0.251847 350.688 0.156397 350.592C0.0609471 350.497 0.00732422 350.367 0.00732422 350.232C0.00732422 350.097 0.0609471 349.968 0.156397 349.872C0.251847 349.777 0.381306 349.723 0.516292 349.723H417.447C417.582 349.723 417.711 349.777 417.807 349.872C417.902 349.968 417.956 350.097 417.956 350.232C417.956 350.367 417.902 350.497 417.807 350.592C417.711 350.688 417.582 350.741 417.447 350.741H417.447Z" fill="#E6E6E6"/>
<path d="M223.612 348.962V96.1219C223.612 92.8792 225.622 90.2504 228.101 90.2504H248.134C250.614 90.2504 252.623 92.8792 252.623 96.1219V349.621L223.612 348.962Z" fill="#122F89"/>
<path d="M319.223 140.315C321.753 140.315 323.804 138.265 323.804 135.735C323.804 133.205 321.753 131.154 319.223 131.154C316.693 131.154 314.643 133.205 314.643 135.735C314.643 138.265 316.693 140.315 319.223 140.315Z" fill="#A0616A"/>
<path d="M370.12 138.28C372.65 138.28 374.7 136.229 374.7 133.699C374.7 131.169 372.65 129.118 370.12 129.118C367.59 129.118 365.539 131.169 365.539 133.699C365.539 136.229 367.59 138.28 370.12 138.28Z" fill="#A0616A"/>
<path d="M381.251 190.403C381.698 189.994 385.342 168.684 385.321 168.203C385.264 165.578 377.254 162.579 375.65 163.623C374.138 164.607 371.504 175.901 369.809 177.958L368.016 174.82H353.765L352.901 176.424C351.031 175.297 349.349 174.259 348.749 173.915C348.543 173.775 348.318 173.665 348.082 173.587C346.6 173.256 345.21 172.602 344.01 171.673C342.839 170.772 337.406 161.337 335.951 161.587C334.307 161.862 328.762 166.656 328.825 171.257C329.523 171.242 338.604 189.401 338.732 190.077C339.429 192.938 341.732 234.653 342.475 236.597C345.898 236.266 343.195 235.676 346.509 236.597C350.077 237.59 353.843 236.516 357.523 236.119C359.055 235.967 360.595 235.899 362.134 235.915C367.733 235.94 375.724 236.251 381.144 237.64C381.175 234.088 378.055 226.402 376.899 223.048C376.748 222.046 376.753 221.026 376.915 220.025C377.062 218.798 380.043 191.759 381.251 190.403Z" fill="#122F89"/>
</g>
<defs>
<clipPath id="clip0_609_279">
<rect width="417.948" height="350.069" fill="white" transform="translate(0.00732422 0.671997)"/>
</clipPath>
</defs>
</svg>
