<svg version="1.2" xmlns="http://www.w3.org/2000/svg" viewBox="0 0 641 413" width="641" height="413">
	<title>Frame 10889-svg</title>
	<style>
		.s0 { fill: #122f89;stroke: #9acfde;stroke-width: 3.6 } 
		.s1 { fill: #ffffff } 
		.s2 { fill: #ffffff;stroke: #000000;stroke-width: 1.3 } 
		.s3 { fill: #122f89 } 
		.s4 { fill: #e6e6e6 } 
		.s5 { fill: #202020 } 
		.s6 { fill: none;stroke: #122f89;stroke-width: 1.3 } 
		.s7 { fill: none;stroke: #9acfde;stroke-width: 3.6 } 
		.s8 { fill: #122f89;stroke: #000000;stroke-width: 1.3 } 
		.s9 { fill: none;stroke: #0a0a0a;stroke-width: 1.3 } 
	</style>
	<path id="Layer" class="s0" d="m320.9 405c-109.6 0-198.2-88.6-198.2-198.2 0-109.6 88.6-198.2 198.2-198.2 109.6 0 198.2 88.6 198.2 198.2 0 109.6-88.6 198.2-198.2 198.2z"/>
	<path id="Layer" class="s1" d="m5.3 44.6c0-8.1 6.6-14.7 14.7-14.7h288.2c8.2 0 14.7 6.6 14.7 14.7v51.7c0 8.1-6.5 14.7-14.7 14.7h-288.2c-8.1 0-14.7-6.6-14.7-14.7z"/>
	<path id="Layer" class="s2" d="m76.6 70.6c0 13.3-10.8 24.1-24.1 24.1-13.3 0-24.1-10.8-24.1-24.1 0-13.3 10.8-24.1 24.1-24.1 13.3 0 24.1 10.8 24.1 24.1z"/>
	<path id="Layer" class="s3" d="m62.4 70.3c-0.2-0.3-0.6-0.4-1-0.4-0.4 0-0.8 0.1-1.1 0.4l-6.3 6.4v-15.7c0-0.4-0.2-0.8-0.5-1.1-0.2-0.2-0.6-0.4-1-0.4-0.4 0-0.8 0.2-1 0.4-0.3 0.3-0.5 0.7-0.5 1.1v15.7l-6.3-6.4c-0.3-0.3-0.7-0.4-1.1-0.4-0.4 0-0.8 0.1-1 0.4-0.3 0.3-0.5 0.6-0.5 1 0 0.4 0.2 0.8 0.5 1.1l8.9 8.9c0.2 0.3 0.6 0.4 1 0.4 0.4 0 0.8-0.1 1-0.4l8.9-8.9c0.3-0.3 0.5-0.7 0.5-1.1 0-0.4-0.2-0.7-0.5-1z"/>
	<path id="Layer" class="s3" d="m270 81q-0.9 0-1.7 0.3-0.7 0.3-1.3 0.9-0.6 0.6-0.9 1.4-0.4 0.8-0.4 1.6 0 0.9 0.4 1.6 0.3 0.8 0.9 1.4 0.6 0.6 1.3 0.9 0.8 0.4 1.7 0.4h16.9q0.9 0 1.7-0.4 0.7-0.3 1.3-0.9 0.6-0.6 1-1.4 0.3-0.7 0.3-1.6 0-0.8-0.3-1.6-0.4-0.8-1-1.4-0.6-0.6-1.3-0.9-0.8-0.3-1.7-0.3z"/>
	<path id="Layer" class="s4" d="m291.2 72.7h-195.9v1.2h195.9z"/>
	<path id="Layer" class="s5" d="m98.9 81.6c-0.9 0-1.8 0.4-2.5 1-0.7 0.7-1 1.6-1 2.6 0 0.9 0.3 1.9 1 2.5 0.7 0.7 1.6 1.1 2.5 1.1h38c0.9 0 1.9-0.3 2.6-1 0.6-0.7 1-1.6 1.1-2.6 0-0.9-0.4-1.8-1.1-2.5-0.6-0.7-1.5-1.1-2.5-1.1q-0.1 0-0.1 0z"/>
	<path id="Layer" class="s6" d="m95 62.7l20.8-10.5c3.4-1.7 7.4-1.9 10.8-0.4l19.9 8.3c3.8 1.6 8.3 1.3 11.8-1l22.3-14c4.2-2.7 9.6-2.7 13.8 0l21.6 13.5c3.9 2.5 8.9 2.7 13 0.5l12.8-7c3-1.7 6.6-2.1 9.9-1.1l39.7 11.7"/>
	<path id="Layer" class="s7" d="m5.3 44.6c0-8.1 6.6-14.7 14.7-14.7h288.2c8.2 0 14.7 6.6 14.7 14.7v51.7c0 8.1-6.5 14.7-14.7 14.7h-288.2c-8.1 0-14.7-6.6-14.7-14.7z"/>
	<path id="Layer" class="s1" d="m191.4 176.4c0-8.1 6.6-14.7 14.7-14.7h288.2c8.2 0 14.7 6.6 14.7 14.7v51.7c0 8.1-6.5 14.7-14.7 14.7h-288.2c-8.1 0-14.7-6.6-14.7-14.7z"/>
	<path id="Layer" class="s8" d="m262.7 202.4c0 13.3-10.8 24.1-24.1 24.1-13.3 0-24.1-10.8-24.1-24.1 0-13.3 10.8-24 24.1-24 13.3 0 24.1 10.7 24.1 24z"/>
	<path id="Layer" class="s1" d="m228.7 202.7c0.2 0.3 0.6 0.5 1 0.5 0.4 0 0.8-0.2 1.1-0.5l6.3-6.3v15.7c0 0.4 0.2 0.7 0.5 1 0.2 0.3 0.6 0.4 1 0.4 0.4 0 0.8-0.1 1-0.4 0.3-0.3 0.5-0.6 0.5-1v-15.7l6.3 6.3c0.3 0.3 0.7 0.5 1.1 0.5 0.4 0 0.8-0.2 1-0.5 0.3-0.2 0.5-0.6 0.5-1 0-0.4-0.2-0.8-0.4-1.1h-0.1l-8.8-8.8c-0.3-0.3-0.7-0.5-1.1-0.5-0.4 0-0.8 0.2-1 0.5l-8.9 8.8c-0.3 0.3-0.5 0.7-0.5 1.1 0 0.4 0.2 0.8 0.5 1z"/>
	<path id="Layer" class="s2" d="m452.8 218.4l-0.6 0.3 0.6-0.3q-0.3-0.6-0.3-1.4 0-0.7 0.3-1.3 0.2-0.7 0.7-1.2 0.5-0.5 1.2-0.8 0.7-0.3 1.4-0.3h16.9q0.8 0 1.4 0.3 0.7 0.3 1.2 0.8 0.5 0.5 0.8 1.2 0.2 0.6 0.2 1.3 0 0.8-0.2 1.4-0.3 0.7-0.8 1.2-0.5 0.5-1.2 0.8-0.6 0.2-1.4 0.2h-16.9q-0.7 0-1.4-0.2-0.7-0.3-1.2-0.8-0.5-0.5-0.7-1.2z"/>
	<path id="Layer" class="s4" d="m477.3 204.6h-195.9v1.1h195.9z"/>
	<path id="Layer" class="s5" d="m285 213.4c-0.9 0-1.8 0.4-2.5 1.1-0.7 0.6-1 1.6-1 2.5 0 1 0.3 1.9 1 2.6 0.7 0.6 1.6 1 2.5 1h38c0.9 0.1 1.9-0.3 2.6-1 0.7-0.7 1-1.6 1.1-2.5 0-1-0.4-1.9-1.1-2.6-0.6-0.7-1.5-1.1-2.5-1.1q-0.1 0-0.1 0z"/>
	<path id="Layer" class="s9" d="m281.1 194.5l20.8-10.5c3.4-1.7 7.4-1.8 10.8-0.4l19.9 8.3c3.8 1.6 8.3 1.3 11.8-1l22.3-14c4.2-2.7 9.6-2.7 13.8 0l21.6 13.6c3.9 2.5 8.9 2.6 13.1 0.4l12.7-7c3-1.6 6.6-2 9.9-1.1l39.7 11.7"/>
	<path id="Layer" class="s7" d="m191.4 176.4c0-8.1 6.6-14.7 14.7-14.7h288.2c8.2 0 14.7 6.6 14.7 14.7v51.7c0 8.1-6.5 14.7-14.7 14.7h-288.2c-8.1 0-14.7-6.6-14.7-14.7z"/>
	<path id="Layer" class="s1" d="m318.1 308.6c0-8.1 6.6-14.7 14.7-14.7h288.2c8.1 0 14.7 6.6 14.7 14.7v51.7c0 8.1-6.6 14.7-14.7 14.7h-288.2c-8.1 0-14.7-6.6-14.7-14.7z"/>
	<path id="Layer" class="s8" d="m389.3 334.6c0 13.3-10.8 24.1-24 24.1-13.3 0-24.1-10.8-24.1-24.1 0-13.3 10.8-24.1 24.1-24.1 13.2 0 24 10.8 24 24.1z"/>
	<path id="Layer" class="s1" d="m355.3 334.9c0.3 0.3 0.7 0.5 1.1 0.5 0.4 0 0.7-0.2 1-0.5l6.4-6.3v15.7c0 0.3 0.1 0.7 0.4 1 0.3 0.3 0.7 0.4 1.1 0.4 0.4 0 0.7-0.1 1-0.4 0.3-0.3 0.4-0.7 0.4-1v-15.7l6.4 6.3c0.3 0.3 0.7 0.5 1 0.5 0.4 0 0.8-0.2 1.1-0.5 0.3-0.2 0.4-0.6 0.4-1 0-0.4-0.1-0.8-0.4-1.1l-8.9-8.9c-0.3-0.2-0.6-0.4-1-0.4-0.4 0-0.8 0.2-1.1 0.4l-8.9 8.9c-0.3 0.3-0.4 0.7-0.4 1.1 0 0.4 0.1 0.8 0.4 1z"/>
	<path id="Layer" class="s8" d="m579.4 350.6l-0.6 0.3 0.6-0.3q-0.3-0.7-0.3-1.4 0-0.7 0.3-1.3 0.3-0.7 0.8-1.2 0.5-0.5 1.2-0.8 0.6-0.3 1.3-0.3h17q0.7 0 1.4 0.3 0.6 0.3 1.1 0.8 0.5 0.5 0.8 1.2 0.3 0.6 0.3 1.3 0 0.7-0.3 1.4-0.3 0.7-0.8 1.2-0.5 0.5-1.1 0.8-0.7 0.2-1.4 0.2h-17q-0.7 0-1.3-0.2-0.7-0.3-1.2-0.8-0.5-0.5-0.8-1.2z"/>
	<path id="Layer" class="s4" d="m603.9 336.8h-195.8v1.1h195.8z"/>
	<path id="Layer" class="s2" d="m449.6 352.2h-37.9c-0.8 0-1.5-0.4-2.1-0.9-0.5-0.6-0.8-1.3-0.8-2.1 0-0.8 0.3-1.5 0.8-2.1 0.6-0.5 1.3-0.9 2.1-0.9h37.9q0.1 0 0.1 0c0.8 0 1.6 0.4 2.1 0.9 0.6 0.6 0.9 1.4 0.9 2.1 0 0.8-0.4 1.6-0.9 2.1-0.6 0.6-1.4 0.9-2.2 0.9z"/>
	<path id="Layer" class="s9" d="m407.8 326.7l20.8-10.5c3.4-1.7 7.3-1.8 10.8-0.4l19.8 8.3c3.9 1.6 8.3 1.3 11.9-1l22.3-14c4.2-2.7 9.6-2.7 13.8 0l21.5 13.6c4 2.5 9 2.6 13.1 0.4l12.8-7c3-1.7 6.5-2 9.8-1.1l39.8 11.7"/>
	<path id="Layer" class="s7" d="m318.1 308.6c0-8.1 6.6-14.7 14.7-14.7h288.2c8.1 0 14.7 6.6 14.7 14.7v51.7c0 8.1-6.6 14.7-14.7 14.7h-288.2c-8.1 0-14.7-6.6-14.7-14.7z"/>
</svg>