<svg width="100" height="100" viewBox="0 0 100 100" fill="none" xmlns="http://www.w3.org/2000/svg">
<rect width="100" height="100" rx="5" fill="#9ACFDE"/>
<mask id="mask0_2_1423" style="mask-type:alpha" maskUnits="userSpaceOnUse" x="22" y="22" width="56" height="56">
<rect x="22" y="22" width="56" height="56" fill="#D9D9D9"/>
</mask>
<g mask="url(#mask0_2_1423)">
<path d="M36.0002 73.3334C34.7168 73.3334 33.6186 72.8768 32.7055 71.9637C31.7908 71.049 31.3335 69.95 31.3335 68.6667V45.3334C31.3335 44.05 31.7908 42.951 32.7055 42.0364C33.6186 41.1233 34.7168 40.6667 36.0002 40.6667H38.3335V36C38.3335 32.7723 39.4714 30.0205 41.7472 27.7447C44.0214 25.4705 46.7724 24.3334 50.0002 24.3334C53.2279 24.3334 55.9797 25.4705 58.2555 27.7447C60.5297 30.0205 61.6668 32.7723 61.6668 36V40.6667H64.0002C65.2835 40.6667 66.3825 41.1233 67.2972 42.0364C68.2103 42.951 68.6668 44.05 68.6668 45.3334V68.6667C68.6668 69.95 68.2103 71.049 67.2972 71.9637C66.3825 72.8768 65.2835 73.3334 64.0002 73.3334H36.0002ZM50.0002 61.6667C51.2835 61.6667 52.3825 61.2102 53.2972 60.297C54.2103 59.3824 54.6668 58.2834 54.6668 57C54.6668 55.7167 54.2103 54.6177 53.2972 53.703C52.3825 52.7899 51.2835 52.3334 50.0002 52.3334C48.7168 52.3334 47.6186 52.7899 46.7055 53.703C45.7908 54.6177 45.3335 55.7167 45.3335 57C45.3335 58.2834 45.7908 59.3824 46.7055 60.297C47.6186 61.2102 48.7168 61.6667 50.0002 61.6667ZM43.0002 40.6667H57.0002V36C57.0002 34.0556 56.3196 32.4028 54.9585 31.0417C53.5974 29.6806 51.9446 29 50.0002 29C48.0557 29 46.4029 29.6806 45.0418 31.0417C43.6807 32.4028 43.0002 34.0556 43.0002 36V40.6667Z" fill="white"/>
</g>
</svg>
