<svg width="100" height="100" viewBox="0 0 100 100" fill="none" xmlns="http://www.w3.org/2000/svg">
<rect width="100" height="100" rx="5" fill="#9ACFDE"/>
<mask id="mask0_2_1409" style="mask-type:alpha" maskUnits="userSpaceOnUse" x="22" y="22" width="56" height="56">
<rect x="22" y="22" width="56" height="56" fill="#CCCCCC"/>
</mask>
<g mask="url(#mask0_2_1409)">
<path d="M50.0002 50C47.4335 50 45.2363 49.0862 43.4085 47.2584C41.5807 45.4306 40.6668 43.2334 40.6668 40.6667C40.6668 38.1 41.5807 35.9028 43.4085 34.075C45.2363 32.2473 47.4335 31.3334 50.0002 31.3334C52.5668 31.3334 54.7641 32.2473 56.5918 34.075C58.4196 35.9028 59.3335 38.1 59.3335 40.6667C59.3335 43.2334 58.4196 45.4306 56.5918 47.2584C54.7641 49.0862 52.5668 50 50.0002 50ZM31.3335 68.6667V62.1334C31.3335 60.8112 31.6742 59.5955 32.3555 58.4864C33.0353 57.3788 33.9391 56.5334 35.0668 55.95C37.4779 54.7445 39.9279 53.8399 42.4168 53.2364C44.9057 52.6344 47.4335 52.3334 50.0002 52.3334C52.5668 52.3334 55.0946 52.6344 57.5835 53.2364C60.0724 53.8399 62.5224 54.7445 64.9335 55.95C66.0613 56.5334 66.9651 57.3788 67.6448 58.4864C68.3262 59.5955 68.6668 60.8112 68.6668 62.1334V68.6667H31.3335Z" fill="white"/>
</g>
</svg>
