<svg width="100" height="100" viewBox="0 0 100 100" fill="none" xmlns="http://www.w3.org/2000/svg">
<rect width="100" height="100" rx="5" fill="#9ACFDE"/>
<mask id="mask0_2_1416" style="mask-type:alpha" maskUnits="userSpaceOnUse" x="22" y="22" width="56" height="56">
<rect x="22" y="22" width="56" height="56" fill="#CCCCCC"/>
</mask>
<g mask="url(#mask0_2_1416)">
<path d="M33.6667 71C32.3833 71 31.2843 70.5434 30.3697 69.6303C29.4566 68.7157 29 67.6167 29 66.3333V33.6667C29 32.3833 29.4566 31.2843 30.3697 30.3697C31.2843 29.4566 32.3833 29 33.6667 29H59.3333L71 40.6667V66.3333C71 67.6167 70.5434 68.7157 69.6303 69.6303C68.7157 70.5434 67.6167 71 66.3333 71H33.6667ZM33.6667 66.3333H66.3333V43H57V33.6667H33.6667V66.3333ZM38.3333 61.6667H61.6667V57H38.3333V61.6667ZM38.3333 43H50V38.3333H38.3333V43ZM38.3333 52.3333H61.6667V47.6667H38.3333V52.3333Z" fill="white"/>
</g>
</svg>
