<svg width="108" height="108" viewBox="0 0 108 108" fill="none" xmlns="http://www.w3.org/2000/svg">
<path d="M69.4901 49.4243C70.6774 46.8756 71.2904 44.0973 71.2858 41.2857C71.2858 39.0314 70.9001 36.8714 70.1887 34.8571H95.9287C100.069 34.8571 103.429 38.2171 103.429 42.3571V50.9371L103.394 51.4C103.159 53.1317 102.607 54.8054 101.766 56.3371C95.8224 50.7858 87.99 47.7031 79.8573 47.7143C76.2315 47.7143 72.743 48.3143 69.4901 49.4243V49.4243ZM49.5358 90.55C37.4844 89.9929 30.1644 85.66 28.493 77.2728L28.4287 76.6428V68.0714C28.4287 63.9314 31.7887 60.5714 35.9287 60.5714H54.143C49.9606 66.1303 47.7038 72.9007 47.7144 79.8571C47.7144 83.6071 48.3573 87.2029 49.5358 90.55V90.55ZM33.8115 34.8571H8.07153C6.08241 34.8571 4.17476 35.6473 2.76823 37.0538C1.36171 38.4603 0.571533 40.368 0.571533 42.3571V50.9286L0.631533 51.5586C2.43153 60.5628 10.7458 64.8957 24.4301 64.8957H24.5715C25.2656 62.4178 26.7513 60.235 28.8019 58.6804C30.8525 57.1258 33.3554 56.2848 35.9287 56.2857H39.8801L39.1258 55.6428C37.1063 53.8362 35.4913 51.6233 34.3864 49.1492C33.2815 46.675 32.7117 43.9954 32.7144 41.2857C32.7144 39.0314 33.1001 36.8714 33.8115 34.8571ZM67.0001 41.2857C67.0001 37.3075 65.4198 33.4921 62.6067 30.6791C59.7937 27.8661 55.9784 26.2857 52.0001 26.2857C48.0219 26.2857 44.2066 27.8661 41.3935 30.6791C38.5805 33.4921 37.0001 37.3075 37.0001 41.2857C37.0001 45.2639 38.5805 49.0793 41.3935 51.8923C44.2066 54.7053 48.0219 56.2857 52.0001 56.2857C55.9784 56.2857 59.7937 54.7053 62.6067 51.8923C65.4198 49.0793 67.0001 45.2639 67.0001 41.2857V41.2857ZM94.8573 15.5714C94.8573 11.5932 93.2769 7.77786 90.4639 4.96481C87.6508 2.15176 83.8355 0.571411 79.8573 0.571411C75.879 0.571411 72.0637 2.15176 69.2506 4.96481C66.4376 7.77786 64.8573 11.5932 64.8573 15.5714C64.8573 19.5497 66.4376 23.365 69.2506 26.178C72.0637 28.9911 75.879 30.5714 79.8573 30.5714C83.8355 30.5714 87.6508 28.9911 90.4639 26.178C93.2769 23.365 94.8573 19.5497 94.8573 15.5714V15.5714ZM39.143 15.5714C39.143 11.5932 37.5626 7.77786 34.7496 4.96481C31.9365 2.15176 28.1212 0.571411 24.143 0.571411C20.1647 0.571411 16.3494 2.15176 13.5364 4.96481C10.7233 7.77786 9.14296 11.5932 9.14296 15.5714C9.14296 19.5497 10.7233 23.365 13.5364 26.178C16.3494 28.9911 20.1647 30.5714 24.143 30.5714C28.1212 30.5714 31.9365 28.9911 34.7496 26.178C37.5626 23.365 39.143 19.5497 39.143 15.5714V15.5714ZM79.8573 107.714C87.2454 107.714 94.331 104.779 99.5552 99.5551C104.779 94.3309 107.714 87.2453 107.714 79.8571C107.714 72.469 104.779 65.3834 99.5552 60.1592C94.331 54.9349 87.2454 52 79.8573 52C72.4691 52 65.3835 54.9349 60.1593 60.1592C54.935 65.3834 52.0001 72.469 52.0001 79.8571C52.0001 87.2453 54.935 94.3309 60.1593 99.5551C65.3835 104.779 72.4691 107.714 79.8573 107.714V107.714ZM79.8573 60.5714C80.4256 60.5714 80.9706 60.7972 81.3725 61.199C81.7743 61.6009 82.0001 62.146 82.0001 62.7143V77.7143H97.0001C97.5684 77.7143 98.1135 77.94 98.5153 78.3419C98.9172 78.7438 99.143 79.2888 99.143 79.8571C99.143 80.4255 98.9172 80.9705 98.5153 81.3724C98.1135 81.7742 97.5684 82 97.0001 82H82.0001V97C82.0001 97.5683 81.7743 98.1134 81.3725 98.5152C80.9706 98.9171 80.4256 99.1428 79.8573 99.1428C79.2889 99.1428 78.7439 98.9171 78.342 98.5152C77.9402 98.1134 77.7144 97.5683 77.7144 97V82H62.7144C62.1461 82 61.601 81.7742 61.1992 81.3724C60.7973 80.9705 60.5715 80.4255 60.5715 79.8571C60.5715 79.2888 60.7973 78.7438 61.1992 78.3419C61.601 77.94 62.1461 77.7143 62.7144 77.7143H77.7144V62.7143C77.7144 62.146 77.9402 61.6009 78.342 61.199C78.7439 60.7972 79.2889 60.5714 79.8573 60.5714V60.5714Z" fill="#9ACFDE"/>
</svg>
