<svg width="120" height="72" viewBox="0 0 120 72" fill="none" xmlns="http://www.w3.org/2000/svg">
<path d="M60.6375 3.975L42.4875 18.675C39.4688 21.1125 38.8875 25.5 41.175 28.6312C43.5938 31.9687 48.3 32.625 51.5437 30.0937L70.1625 15.6187C71.475 14.6062 73.35 14.8313 74.3813 16.1437C75.4125 17.4562 75.1687 19.3312 73.8562 20.3625L69.9375 23.4L96 47.4V12H95.8687L95.1375 11.5312L81.525 2.8125C78.6562 0.975 75.3 0 71.8875 0C67.8 0 63.825 1.40625 60.6375 3.975ZM64.9125 27.3L55.2188 34.8375C49.3125 39.45 40.7437 38.25 36.3187 32.175C32.1562 26.4562 33.2062 18.4688 38.7 14.025L54.3 1.40625C52.125 0.4875 49.7812 0.0187497 47.4 0.0187497C43.875 -2.86382e-07 40.4437 1.05 37.5 3L24 12V54H29.2875L46.425 69.6375C50.1 72.9937 55.7812 72.7312 59.1375 69.0562C60.1687 67.9125 60.8625 66.5812 61.2188 65.1937L64.4062 68.1187C68.0625 71.475 73.7625 71.2312 77.1187 67.575C77.9625 66.6562 78.5813 65.5875 78.975 64.4812C82.6125 66.9187 87.5625 66.4125 90.6187 63.075C93.975 59.4187 93.7312 53.7187 90.075 50.3625L64.9125 27.3ZM18 12H0V54C0 57.3187 2.68125 60 6 60H12C15.3188 60 18 57.3187 18 54V12ZM9 54C7.35 54 6 52.65 6 51C6 49.35 7.35 48 9 48C10.65 48 12 49.35 12 51C12 52.65 10.65 54 9 54ZM102 12V54C102 57.3187 104.681 60 108 60H114C117.319 60 120 57.3187 120 54V12H102ZM114 51C114 52.65 112.65 54 111 54C109.35 54 108 52.65 108 51C108 49.35 109.35 48 111 48C112.65 48 114 49.35 114 51Z" fill="#9ACFDE"/>
</svg>
