<svg width="19" height="23" viewBox="0 0 19 23" fill="none" xmlns="http://www.w3.org/2000/svg">
<path d="M11.0837 1.91666H4.75033C4.3304 1.91666 3.92767 2.11859 3.63074 2.47804C3.33381 2.83748 3.16699 3.32499 3.16699 3.83332V19.1667C3.16699 19.675 3.33381 20.1625 3.63074 20.5219C3.92767 20.8814 4.3304 21.0833 4.75033 21.0833H14.2503C14.6703 21.0833 15.073 20.8814 15.3699 20.5219C15.6668 20.1625 15.8337 19.675 15.8337 19.1667V7.66666L11.0837 1.91666Z" stroke="black" stroke-width="2" stroke-linecap="round" stroke-linejoin="round"/>
<path d="M11.083 1.91666V7.66666H15.833" stroke="black" stroke-width="2" stroke-linecap="round" stroke-linejoin="round"/>
<path d="M12.6663 12.4583H6.33301" stroke="black" stroke-width="2" stroke-linecap="round" stroke-linejoin="round"/>
<path d="M12.6663 16.2917H6.33301" stroke="black" stroke-width="2" stroke-linecap="round" stroke-linejoin="round"/>
<path d="M7.91634 8.625H7.12467H6.33301" stroke="black" stroke-width="2" stroke-linecap="round" stroke-linejoin="round"/>
</svg>
