<svg width="18" height="10" viewBox="0 0 18 10" fill="none" xmlns="http://www.w3.org/2000/svg">
<path d="M4.90909 7.5C5.59091 7.5 6.17045 7.25694 6.64773 6.77083C7.125 6.28472 7.36364 5.69444 7.36364 5C7.36364 4.30556 7.125 3.71528 6.64773 3.22917C6.17045 2.74306 5.59091 2.5 4.90909 2.5C4.22727 2.5 3.64773 2.74306 3.17045 3.22917C2.69318 3.71528 2.45455 4.30556 2.45455 5C2.45455 5.69444 2.69318 6.28472 3.17045 6.77083C3.64773 7.25694 4.22727 7.5 4.90909 7.5ZM4.90909 10C3.54545 10 2.38636 9.51389 1.43182 8.54167C0.477273 7.56944 0 6.38889 0 5C0 3.61111 0.477273 2.43056 1.43182 1.45833C2.38636 0.486111 3.54545 0 4.90909 0C6.01364 0 6.97855 0.319445 7.80382 0.958333C8.62855 1.59722 9.20455 2.38889 9.53182 3.33333H16.3841L18 4.97917L15.1364 8.3125L13.0909 6.66667L11.4545 8.33333L9.81818 6.66667H9.53182C9.19091 7.66667 8.59773 8.47222 7.75227 9.08333C6.90682 9.69444 5.95909 10 4.90909 10Z" fill="#EEE748"/>
</svg>
