<svg width="20" height="6" viewBox="0 0 20 6" fill="none" xmlns="http://www.w3.org/2000/svg">
<path d="M5.33301 3C5.33302 3.61884 5.08718 4.21233 4.6496 4.64992C4.21202 5.0875 3.61853 5.33334 2.99969 5.33334C2.38085 5.33334 1.78735 5.08751 1.34977 4.64993C0.912182 4.21234 0.666348 3.61885 0.666346 3.00001C0.666345 2.38117 0.912175 1.78768 1.34976 1.35009C1.78734 0.912508 2.38083 0.666673 2.99967 0.666672C3.61851 0.66667 4.212 0.912501 4.64959 1.35009C5.08718 1.78767 5.33301 2.38116 5.33301 3ZM12.333 2.99998C12.333 3.61882 12.0872 4.21231 11.6496 4.6499C11.212 5.08748 10.6185 5.33332 9.99969 5.33332C9.38085 5.33332 8.78736 5.08749 8.34977 4.64991C7.91218 4.21232 7.66635 3.61883 7.66635 2.99999C7.66634 2.38115 7.91218 1.78766 8.34976 1.35007C8.78734 0.912489 9.38084 0.666654 9.99967 0.666652C10.6185 0.66665 11.212 0.912482 11.6496 1.35007C12.0872 1.78765 12.333 2.38114 12.333 2.99998ZM19.333 2.99996C19.333 3.6188 19.0872 4.21229 18.6496 4.64988C18.212 5.08746 17.6185 5.3333 16.9997 5.3333C16.3808 5.3333 15.7874 5.08747 15.3498 4.64989C14.9122 4.2123 14.6663 3.61881 14.6663 2.99997C14.6663 2.38113 14.9122 1.78764 15.3498 1.35006C15.7873 0.912469 16.3808 0.666634 16.9997 0.666633C17.6185 0.666631 18.212 0.912462 18.6496 1.35005C19.0872 1.78763 19.333 2.38112 19.333 2.99996Z" fill="#262626"/>
</svg>
