<svg width="20" height="20" viewBox="0 0 20 20" fill="none" xmlns="http://www.w3.org/2000/svg">
<path d="M10.0001 18.9286C14.9312 18.9286 18.9287 14.9311 18.9287 10C18.9287 5.06888 14.9312 1.07143 10.0001 1.07143C5.06899 1.07143 1.07153 5.06888 1.07153 10C1.07153 14.9311 5.06899 18.9286 10.0001 18.9286Z" fill="#C5EAC8" stroke="#038A00" stroke-width="1.5" stroke-linecap="round" stroke-linejoin="round"/>
<path d="M5.46704 11.3735C6.15385 13.846 8.90111 15.357 11.3736 14.6702C12.8846 14.1207 14.1209 12.8844 14.533 11.3735" stroke="#038A00" stroke-width="1.5" stroke-linecap="round" stroke-linejoin="round"/>
<path d="M13.6403 7.93953C13.4506 7.93953 13.2969 7.78578 13.2969 7.59612C13.2969 7.40646 13.4506 7.25272 13.6403 7.25272" stroke="#038A00" stroke-width="1.5" stroke-linecap="round" stroke-linejoin="round"/>
<path d="M13.6402 7.93956C13.8299 7.93956 13.9836 7.78581 13.9836 7.59615C13.9836 7.40649 13.8299 7.25275 13.6402 7.25275" stroke="#038A00" stroke-width="1.5" stroke-linecap="round" stroke-linejoin="round"/>
<path d="M6.36001 7.93953C6.17035 7.93953 6.0166 7.78578 6.0166 7.59612C6.0166 7.40646 6.17035 7.25272 6.36001 7.25272" stroke="#038A00" stroke-width="1.5" stroke-linecap="round" stroke-linejoin="round"/>
<path d="M6.35996 7.93956C6.54962 7.93956 6.70337 7.78581 6.70337 7.59615C6.70337 7.40649 6.54962 7.25275 6.35996 7.25275" stroke="#038A00" stroke-width="1.5" stroke-linecap="round" stroke-linejoin="round"/>
</svg>
