<svg width="28" height="24" viewBox="0 0 28 24" fill="none" xmlns="http://www.w3.org/2000/svg">
<path d="M0.000757232 0.363925C0.127263 2.22983 0.85084 5.60453 4.28903 7.30723L7.94764 3.11747C7.94764 3.11747 2.68422 2.85537 0.599745 0.131052C0.555561 0.0735646 0.494408 0.0319978 0.42527 0.0124583C0.356131 -0.00708113 0.282651 -0.00356327 0.215625 0.0224951C0.148598 0.0485536 0.0915579 0.0957788 0.0528834 0.157234C0.0142089 0.218688 -0.00406109 0.291133 0.000757232 0.363925Z" fill="url(#paint0_linear_587_109)"/>
<path d="M27.9993 0.364037C27.8738 2.22994 27.1502 5.60464 23.712 7.30734L20.0534 3.11758C20.0534 3.11758 25.3183 2.85548 27.4013 0.131164C27.4456 0.0741102 27.5067 0.0329433 27.5756 0.0136697C27.6446 -0.00560392 27.7178 -0.00197564 27.7845 0.0240251C27.8513 0.0500259 27.9082 0.0970387 27.9468 0.158204C27.9854 0.21937 28.0039 0.291488 27.9993 0.364037Z" fill="url(#paint1_linear_587_109)"/>
<path d="M14.001 23.9958C20.3838 23.9958 25.5581 18.7352 25.5581 12.2459C25.5581 5.75667 20.3838 0.496094 14.001 0.496094C7.61814 0.496094 2.44385 5.75667 2.44385 12.2459C2.44385 18.7352 7.61814 23.9958 14.001 23.9958Z" fill="url(#paint2_linear_587_109)"/>
<g style="mix-blend-mode:soft-light">
<path d="M14.001 24.0002C20.3838 24.0002 25.5581 18.7396 25.5581 12.2503C25.5581 5.76107 20.3838 0.500488 14.001 0.500488C7.61814 0.500488 2.44385 5.76107 2.44385 12.2503C2.44385 18.7396 7.61814 24.0002 14.001 24.0002Z" fill="url(#paint3_radial_587_109)"/>
</g>
<g style="mix-blend-mode:soft-light">
<path d="M14.001 23.9958C20.3838 23.9958 25.5581 18.7352 25.5581 12.2459C25.5581 5.75667 20.3838 0.496094 14.001 0.496094C7.61814 0.496094 2.44385 5.75667 2.44385 12.2459C2.44385 18.7352 7.61814 23.9958 14.001 23.9958Z" fill="url(#paint4_linear_587_109)"/>
</g>
<g style="mix-blend-mode:overlay">
<path d="M14.001 24.0002C20.3838 24.0002 25.5581 18.7396 25.5581 12.2503C25.5581 5.76107 20.3838 0.500488 14.001 0.500488C7.61814 0.500488 2.44385 5.76107 2.44385 12.2503C2.44385 18.7396 7.61814 24.0002 14.001 24.0002Z" fill="url(#paint5_radial_587_109)" fill-opacity="0.7"/>
</g>
<mask id="mask0_587_109" style="mask-type:alpha" maskUnits="userSpaceOnUse" x="2" y="0" width="24" height="24">
<path d="M14.001 24.0002C20.3838 24.0002 25.5581 18.7396 25.5581 12.2503C25.5581 5.76107 20.3838 0.500488 14.001 0.500488C7.61814 0.500488 2.44385 5.76107 2.44385 12.2503C2.44385 18.7396 7.61814 24.0002 14.001 24.0002Z" fill="white"/>
</mask>
<g mask="url(#mask0_587_109)">
<g filter="url(#filter0_f_587_109)">
<path d="M2.37791 11.9152C2.39046 11.7483 2.4445 11.7316 2.46026 11.9011C2.47777 12.0894 2.44373 12.4681 2.45193 12.6965C2.47363 13.3012 2.56481 13.8271 2.65881 14.2548C2.96173 15.6331 3.38122 16.5213 3.77248 17.2737C5.0586 19.7473 6.46744 20.9998 7.84181 21.9438C9.8564 23.3275 11.8874 23.7676 13.92 23.861C13.9712 23.8634 13.9798 24.2029 13.9293 24.2471C13.8384 24.3268 13.7257 24.2477 13.6327 24.2444C13.3653 24.2348 13.0979 24.2162 12.8306 24.1879C12.0378 24.1042 11.2451 23.9336 10.4541 23.6592C8.30312 22.9131 5.98393 21.6356 3.95852 18.0373C3.83111 17.811 3.7047 17.5726 3.58009 17.3166C3.48043 17.1117 3.38174 16.8971 3.28479 16.6674C2.9659 15.9122 2.22278 13.9789 2.37791 11.9152ZM13.9214 24.2507C13.8725 24.2523 13.8601 23.9357 13.9067 23.87C13.9772 23.7707 14.0828 23.8525 14.1571 23.8478C14.4656 23.8282 14.7741 23.7991 15.0825 23.7597C15.928 23.6518 16.773 23.4675 17.616 23.1836C19.707 22.4796 21.955 21.4063 23.9262 18.1089C24.0516 17.899 24.176 17.6764 24.2987 17.4371C24.6715 16.7098 25.606 14.7792 25.498 12.3792C25.4889 12.1768 25.5495 12.0557 25.5766 12.2292C25.6111 12.4502 25.5971 12.9109 25.5876 13.1561C25.5572 13.9412 25.4386 14.6051 25.3135 15.1413C24.9172 16.8407 24.3609 17.8259 23.8514 18.6486C22.1953 21.3226 20.3966 22.4006 18.6479 23.1753C17.0795 23.87 15.4991 24.2012 13.9214 24.2507Z" fill="#3A0044"/>
</g>
<g filter="url(#filter1_f_587_109)">
<path d="M2.37791 11.9152C2.39046 11.7483 2.4445 11.7316 2.46026 11.9011C2.47777 12.0894 2.44373 12.4681 2.45193 12.6965C2.47363 13.3012 2.56481 13.8271 2.65881 14.2548C2.96173 15.6331 3.38122 16.5213 3.77248 17.2737C5.0586 19.7473 6.46744 20.9998 7.84181 21.9438C9.8564 23.3275 11.8874 23.7676 13.92 23.861C13.9712 23.8634 13.9798 24.2029 13.9293 24.2471C13.8384 24.3268 13.7257 24.2477 13.6327 24.2444C13.3653 24.2348 13.0979 24.2162 12.8306 24.1879C12.0378 24.1042 11.2451 23.9336 10.4541 23.6592C8.30312 22.9131 5.98393 21.6356 3.95852 18.0373C3.83111 17.811 3.7047 17.5726 3.58009 17.3166C3.48043 17.1117 3.38174 16.8971 3.28479 16.6674C2.9659 15.9122 2.22278 13.9789 2.37791 11.9152ZM13.9214 24.2507C13.8725 24.2523 13.8601 23.9357 13.9067 23.87C13.9772 23.7707 14.0828 23.8525 14.1571 23.8478C14.4656 23.8282 14.7741 23.7991 15.0825 23.7597C15.928 23.6518 16.773 23.4675 17.616 23.1836C19.707 22.4796 21.955 21.4063 23.9262 18.1089C24.0516 17.899 24.176 17.6764 24.2987 17.4371C24.6715 16.7098 25.606 14.7792 25.498 12.3792C25.4889 12.1768 25.5495 12.0557 25.5766 12.2292C25.6111 12.4502 25.5971 12.9109 25.5876 13.1561C25.5572 13.9412 25.4386 14.6051 25.3135 15.1413C24.9172 16.8407 24.3609 17.8259 23.8514 18.6486C22.1953 21.3226 20.3966 22.4006 18.6479 23.1753C17.0795 23.87 15.4991 24.2012 13.9214 24.2507Z" fill="#3A0044"/>
</g>
</g>
<path d="M18.4119 16.7391C18.5235 16.6738 18.6759 16.7528 18.6405 16.8565C18.1244 18.3634 16.2512 19.48 14.0192 19.48C11.7871 19.48 9.91106 18.3624 9.39737 16.856C9.36191 16.7523 9.51477 16.6734 9.62594 16.7386C10.7367 17.3895 12.295 17.7948 14.0192 17.7948C15.7433 17.7948 17.3007 17.388 18.4119 16.7391Z" fill="url(#paint6_radial_587_109)"/>
<path d="M18.4119 16.7391C18.5235 16.6738 18.6759 16.7528 18.6405 16.8565C18.1244 18.3634 16.2512 19.48 14.0192 19.48C11.7871 19.48 9.91106 18.3624 9.39737 16.856C9.36191 16.7523 9.51477 16.6734 9.62594 16.7386C10.7367 17.3895 12.295 17.7948 14.0192 17.7948C15.7433 17.7948 17.3006 17.388 18.4119 16.7391Z" stroke="url(#paint7_linear_587_109)" stroke-width="2.5" stroke-miterlimit="10"/>
<path d="M10.7607 14.439C11.5273 14.439 12.1489 13.6204 12.1489 12.6106C12.1489 11.6008 11.5273 10.7822 10.7607 10.7822C9.99396 10.7822 9.37244 11.6008 9.37244 12.6106C9.37244 13.6204 9.99396 14.439 10.7607 14.439Z" fill="url(#paint8_radial_587_109)"/>
<path d="M10.7607 14.439C11.5273 14.439 12.1489 13.6204 12.1489 12.6106C12.1489 11.6008 11.5273 10.7822 10.7607 10.7822C9.99396 10.7822 9.37244 11.6008 9.37244 12.6106C9.37244 13.6204 9.99396 14.439 10.7607 14.439Z" stroke="url(#paint9_radial_587_109)" stroke-width="2" stroke-miterlimit="10"/>
<path d="M12.4843 11.6873C12.4469 11.7127 12.402 11.7239 12.3573 11.719C12.3127 11.7141 12.2711 11.6934 12.2399 11.6605L12.2198 11.6396C12.1771 11.5948 12.1335 11.5504 12.0899 11.5061C12.0463 11.4618 12.0051 11.4213 11.962 11.3794C11.9189 11.3375 11.8786 11.302 11.8355 11.2601C11.7924 11.2182 11.7535 11.1846 11.7123 11.1475C11.6711 11.1105 11.6318 11.0769 11.5906 11.0418C11.5494 11.0067 11.5115 10.9751 11.4718 10.9444C11.432 10.9137 11.3941 10.882 11.3549 10.8513L11.2403 10.7641C11.2029 10.7373 11.1656 10.71 11.1272 10.6837C11.0889 10.6574 11.0544 10.635 11.017 10.6087C10.9796 10.5824 10.9451 10.56 10.9087 10.539C10.8723 10.5181 10.8388 10.4962 10.8028 10.4747C10.7669 10.4533 10.7343 10.4348 10.6993 10.4158C10.6643 10.3968 10.6318 10.3793 10.5982 10.3617L10.4985 10.313L10.4027 10.2682C10.3716 10.2545 10.3399 10.2414 10.3069 10.2282C10.2738 10.2151 10.246 10.2039 10.2149 10.1927C10.1837 10.1815 10.155 10.1712 10.1248 10.161C10.0946 10.1508 10.0658 10.1415 10.0366 10.1332C10.0074 10.1249 9.98006 10.1162 9.9513 10.1089C9.92255 10.1016 9.8962 10.0947 9.86793 10.0884C9.83965 10.0821 9.81426 10.0762 9.78742 10.0709C9.76059 10.0655 9.73471 10.0611 9.70883 10.0567L9.63264 10.045C9.60773 10.0421 9.58472 10.0392 9.55885 10.0372C9.53297 10.0353 9.51093 10.0329 9.48697 10.0309L9.41797 10.027H9.35136H9.28667H9.22437L9.16687 10.0304L9.10889 10.0363L9.05282 10.0426L9.02838 10.0465C8.73416 10.0884 8.60478 9.97928 8.55255 9.83994C8.47109 9.62217 8.6158 9.38589 8.84006 9.33668C10.5776 8.95327 11.859 10.3822 12.5356 11.4194C12.5633 11.462 12.5734 11.5139 12.5638 11.564C12.5542 11.6141 12.5257 11.6584 12.4843 11.6873Z" fill="#331842"/>
<path d="M17.2379 14.439C18.0046 14.439 18.6261 13.6204 18.6261 12.6106C18.6261 11.6008 18.0046 10.7822 17.2379 10.7822C16.4712 10.7822 15.8497 11.6008 15.8497 12.6106C15.8497 13.6204 16.4712 14.439 17.2379 14.439Z" fill="url(#paint10_radial_587_109)"/>
<path d="M17.2379 14.439C18.0046 14.439 18.6261 13.6204 18.6261 12.6106C18.6261 11.6008 18.0046 10.7822 17.2379 10.7822C16.4712 10.7822 15.8497 11.6008 15.8497 12.6106C15.8497 13.6204 16.4712 14.439 17.2379 14.439Z" stroke="url(#paint11_radial_587_109)" stroke-width="2" stroke-miterlimit="10"/>
<path d="M15.5142 11.6873C15.5516 11.7127 15.5965 11.7239 15.6412 11.719C15.6858 11.7141 15.7274 11.6934 15.7586 11.6605L15.7787 11.6396C15.8214 11.5948 15.865 11.5504 15.9086 11.5061L16.0365 11.3794C16.0777 11.339 16.1199 11.2995 16.1625 11.2601C16.2052 11.2206 16.2445 11.1846 16.2857 11.1475C16.3269 11.1105 16.3662 11.0769 16.4074 11.0418C16.4486 11.0067 16.4865 10.9751 16.5262 10.9444C16.566 10.9137 16.6039 10.882 16.6432 10.8513L16.7577 10.7641C16.7951 10.7373 16.8324 10.71 16.8708 10.6837C16.9091 10.6574 16.9436 10.635 16.981 10.6087C17.0184 10.5824 17.0529 10.56 17.0893 10.539C17.1257 10.5181 17.1593 10.4962 17.1952 10.4747C17.2311 10.4533 17.2637 10.4348 17.2987 10.4158C17.3337 10.3968 17.3663 10.3793 17.3998 10.3617L17.4995 10.313L17.5953 10.2682C17.6265 10.2545 17.6581 10.2414 17.6912 10.2282C17.7242 10.2151 17.752 10.2039 17.7832 10.1927C17.8143 10.1815 17.8431 10.1712 17.8733 10.161C17.9034 10.1508 17.9322 10.1415 17.9614 10.1332C17.9907 10.1249 18.018 10.1162 18.0467 10.1089C18.0755 10.1016 18.1018 10.0947 18.1301 10.0884C18.1584 10.0821 18.1838 10.0762 18.2106 10.0709C18.2374 10.0655 18.2633 10.0611 18.2892 10.0567L18.3654 10.045C18.3903 10.0421 18.4133 10.0392 18.4392 10.0372C18.4651 10.0353 18.4871 10.0329 18.5111 10.0309L18.5801 10.027H18.6467H18.7114H18.7736L18.8312 10.0304L18.8891 10.0363L18.9452 10.0426L18.9696 10.0465C19.2639 10.0884 19.3932 9.97928 19.4455 9.83994C19.5269 9.62217 19.3822 9.38589 19.158 9.33668C17.4204 8.95327 16.1391 10.3822 15.4624 11.4194C15.4348 11.462 15.4248 11.514 15.4344 11.5641C15.4441 11.6142 15.4728 11.6585 15.5142 11.6873Z" fill="#331842"/>
<defs>
<filter id="filter0_f_587_109" x="-22.6431" y="-13.2183" width="73.2418" height="62.501" filterUnits="userSpaceOnUse" color-interpolation-filters="sRGB">
<feFlood flood-opacity="0" result="BackgroundImageFix"/>
<feBlend mode="normal" in="SourceGraphic" in2="BackgroundImageFix" result="shape"/>
<feGaussianBlur stdDeviation="12.5" result="effect1_foregroundBlur_587_109"/>
</filter>
<filter id="filter1_f_587_109" x="-37.6431" y="-28.2183" width="103.242" height="92.501" filterUnits="userSpaceOnUse" color-interpolation-filters="sRGB">
<feFlood flood-opacity="0" result="BackgroundImageFix"/>
<feBlend mode="normal" in="SourceGraphic" in2="BackgroundImageFix" result="shape"/>
<feGaussianBlur stdDeviation="20" result="effect1_foregroundBlur_587_109"/>
</filter>
<linearGradient id="paint0_linear_587_109" x1="1.8782" y1="-0.957173" x2="6.10449" y2="6.24149" gradientUnits="userSpaceOnUse">
<stop stop-color="#AF4FF7"/>
<stop offset="0.526042" stop-color="#A233FF"/>
<stop offset="1" stop-color="#43008F"/>
</linearGradient>
<linearGradient id="paint1_linear_587_109" x1="21.9314" y1="-0.955531" x2="26.1568" y2="6.242" gradientUnits="userSpaceOnUse">
<stop stop-color="#AF4FF7"/>
<stop offset="0.526042" stop-color="#A233FF"/>
<stop offset="1" stop-color="#43008F"/>
</linearGradient>
<linearGradient id="paint2_linear_587_109" x1="14.0005" y1="24.0182" x2="14.0005" y2="0.48734" gradientUnits="userSpaceOnUse">
<stop stop-color="#A05AFF"/>
<stop offset="0.486542" stop-color="#A456FF"/>
<stop offset="0.768116" stop-color="#B14BFF"/>
<stop offset="1" stop-color="#C33AFF"/>
</linearGradient>
<radialGradient id="paint3_radial_587_109" cx="0" cy="0" r="1" gradientUnits="userSpaceOnUse" gradientTransform="translate(13.9923 3.64281) rotate(90) scale(20.3398 20.0062)">
<stop stop-color="white" stop-opacity="0.5"/>
<stop offset="0.782278"/>
</radialGradient>
<linearGradient id="paint4_linear_587_109" x1="14.0005" y1="24.0182" x2="14.0005" y2="0.48734" gradientUnits="userSpaceOnUse">
<stop stop-color="#A05AFF"/>
<stop offset="0.401042" stop-color="#A456FF"/>
<stop offset="0.768116" stop-color="#B14BFF" stop-opacity="0"/>
<stop offset="1" stop-color="#C33AFF" stop-opacity="0"/>
</linearGradient>
<radialGradient id="paint5_radial_587_109" cx="0" cy="0" r="1" gradientUnits="userSpaceOnUse" gradientTransform="translate(13.9923 -2.05721) rotate(90) scale(26.0398 34.6375)">
<stop offset="0.0922635" stop-color="white"/>
<stop offset="0.670207" stop-color="white" stop-opacity="0"/>
</radialGradient>
<radialGradient id="paint6_radial_587_109" cx="0" cy="0" r="1" gradientUnits="userSpaceOnUse" gradientTransform="translate(14.0136 18.0794) scale(5.89801 1.38498)">
<stop stop-color="#490082"/>
<stop offset="1" stop-color="#321040"/>
</radialGradient>
<linearGradient id="paint7_linear_587_109" x1="14.012" y1="16.3094" x2="14.012" y2="20.4992" gradientUnits="userSpaceOnUse">
<stop stop-color="#38036B"/>
<stop offset="1" stop-color="#B06CF4"/>
</linearGradient>
<radialGradient id="paint8_radial_587_109" cx="0" cy="0" r="1" gradientUnits="userSpaceOnUse" gradientTransform="translate(10.759 12.5868) scale(1.76963 1.83156)">
<stop stop-color="#490082"/>
<stop offset="1" stop-color="#321040"/>
</radialGradient>
<radialGradient id="paint9_radial_587_109" cx="0" cy="0" r="1" gradientUnits="userSpaceOnUse" gradientTransform="translate(10.7606 12.6106) scale(1.65416 1.68175)">
<stop stop-color="#B66EFF"/>
<stop offset="0.27" stop-color="#B46AFF"/>
<stop offset="0.56" stop-color="#AF5DFF"/>
<stop offset="0.84" stop-color="#A649FF"/>
<stop offset="1" stop-color="#9F3AFF"/>
</radialGradient>
<radialGradient id="paint10_radial_587_109" cx="0" cy="0" r="1" gradientUnits="userSpaceOnUse" gradientTransform="translate(17.2363 12.5868) scale(1.76963 1.83156)">
<stop stop-color="#490082"/>
<stop offset="1" stop-color="#321040"/>
</radialGradient>
<radialGradient id="paint11_radial_587_109" cx="0" cy="0" r="1" gradientUnits="userSpaceOnUse" gradientTransform="translate(17.2379 12.6106) scale(1.65416 1.68175)">
<stop stop-color="#B66EFF"/>
<stop offset="0.27" stop-color="#B46AFF"/>
<stop offset="0.56" stop-color="#AF5DFF"/>
<stop offset="0.84" stop-color="#A649FF"/>
<stop offset="1" stop-color="#9F3AFF"/>
</radialGradient>
</defs>
</svg>
