<svg width="30" height="30" viewBox="0 0 30 30" fill="none" xmlns="http://www.w3.org/2000/svg">
<g clip-path="url(#clip0_44_300)">
<path d="M16.3875 7.15L15.675 10.7625C15.525 11.5 15.725 12.2625 16.2 12.8375C16.675 13.4125 17.375 13.75 18.125 13.75H25V15.1L21.7875 22.5H11.675C11.45 22.5 11.25 22.3 11.25 22.075V12.275L16.3875 7.15ZM17.5 2.5L9.4875 10.5125C9.0125 10.9875 8.75 11.625 8.75 12.2875V22.075C8.75 23.6875 10.0625 25 11.675 25H21.8C22.6875 25 23.5 24.5375 23.95 23.7875L27.2875 16.1C27.425 15.7875 27.5 15.45 27.5 15.1V13.75C27.5 12.375 26.375 11.25 25 11.25H18.125L19.275 5.4375C19.3375 5.1625 19.3 4.8625 19.175 4.6125C18.8875 4.05 18.525 3.5375 18.075 3.0875L17.5 2.5ZM5 11.25H2.5V25H5C5.6875 25 6.25 24.4375 6.25 23.75V12.5C6.25 11.8125 5.6875 11.25 5 11.25Z" fill="black"/>
</g>
<defs>
<clipPath id="clip0_44_300">
<rect width="30" height="30" fill="white"/>
</clipPath>
</defs>
</svg>
