<svg width="30" height="30" viewBox="0 0 30 30" fill="none" xmlns="http://www.w3.org/2000/svg">
<g clip-path="url(#clip0_44_303)">
<path d="M13.6125 22.85L14.325 19.2375C14.475 18.5 14.275 17.7375 13.8 17.1625C13.325 16.5875 12.625 16.25 11.875 16.25H5V14.9L8.2125 7.5H18.325C18.55 7.5 18.75 7.7 18.75 7.925V17.725L13.6125 22.85ZM12.5 27.5L20.5125 19.4875C20.9875 19.0125 21.25 18.375 21.25 17.7125V7.925C21.25 6.3125 19.9375 5 18.325 5H8.2C7.3125 5 6.5 5.4625 6.05 6.2125L2.7125 13.9C2.575 14.2125 2.5 14.55 2.5 14.9V16.25C2.5 17.625 3.625 18.75 5 18.75H11.875L10.725 24.5625C10.6625 24.8375 10.7 25.1375 10.825 25.3875C11.1125 25.95 11.475 26.4625 11.925 26.9125L12.5 27.5ZM25 18.75H27.5V5H25C24.3125 5 23.75 5.5625 23.75 6.25V17.5C23.75 18.1875 24.3125 18.75 25 18.75Z" fill="black"/>
</g>
<defs>
<clipPath id="clip0_44_303">
<rect width="30" height="30" fill="white"/>
</clipPath>
</defs>
</svg>
