<svg width="30" height="30" viewBox="0 0 30 30" fill="none" xmlns="http://www.w3.org/2000/svg">
<path d="M21.0625 8.56264L22.8625 10.3626L16.7625 16.4626L12.65 12.3501C12.5343 12.2343 12.397 12.1423 12.2458 12.0796C12.0946 12.0169 11.9324 11.9846 11.7687 11.9846C11.605 11.9846 11.4429 12.0169 11.2917 12.0796C11.1405 12.1423 11.0031 12.2343 10.8875 12.3501L3.38749 19.8626C3.27176 19.9784 3.17996 20.1158 3.11733 20.267C3.0547 20.4182 3.02246 20.5802 3.02246 20.7439C3.02246 20.9076 3.0547 21.0696 3.11733 21.2208C3.17996 21.372 3.27176 21.5094 3.38749 21.6251C3.50321 21.7409 3.6406 21.8327 3.79181 21.8953C3.94301 21.9579 4.10507 21.9902 4.26874 21.9902C4.4324 21.9902 4.59446 21.9579 4.74567 21.8953C4.89687 21.8327 5.03426 21.7409 5.14999 21.6251L11.7625 15.0001L15.875 19.1126C16.3625 19.6001 17.15 19.6001 17.6375 19.1126L24.625 12.1376L26.425 13.9376C26.5123 14.0233 26.6229 14.0814 26.743 14.1048C26.8631 14.1282 26.9874 14.1159 27.1005 14.0693C27.2136 14.0227 27.3106 13.9439 27.3794 13.8428C27.4482 13.7416 27.4858 13.6225 27.4875 13.5001V8.12514C27.4909 8.04321 27.4775 7.96144 27.4481 7.88488C27.4187 7.80833 27.3739 7.73861 27.3165 7.68004C27.2591 7.62147 27.1903 7.57529 27.1144 7.54435C27.0385 7.51341 26.957 7.49836 26.875 7.50014H21.5125C21.3891 7.49942 21.2682 7.53523 21.1652 7.60308C21.0621 7.67092 20.9814 7.76776 20.9333 7.88138C20.8852 7.99501 20.8718 8.12034 20.8948 8.24157C20.9177 8.36281 20.9761 8.47452 21.0625 8.56264Z" fill="#072D4B"/>
</svg>
