<svg width="31" height="32" viewBox="0 0 31 32" fill="none" xmlns="http://www.w3.org/2000/svg">
<circle cx="15.5" cy="16" r="15.5" fill="#D9D9D9"/>
<path d="M24 24.5V22.5C24 21.4391 23.5786 20.4217 22.8284 19.6716C22.0783 18.9214 21.0609 18.5 20 18.5H12C10.9391 18.5 9.92172 18.9214 9.17157 19.6716C8.42143 20.4217 8 21.4391 8 22.5V24.5" stroke="#172B85" stroke-width="2" stroke-linecap="round" stroke-linejoin="round"/>
<path d="M16 14.5C18.2091 14.5 20 12.7091 20 10.5C20 8.29086 18.2091 6.5 16 6.5C13.7909 6.5 12 8.29086 12 10.5C12 12.7091 13.7909 14.5 16 14.5Z" stroke="#172B85" stroke-width="2" stroke-linecap="round" stroke-linejoin="round"/>
</svg>
